<?xml version="1.0" standalone="no"?><!DOCTYPE svg PUBLIC "-//W3C//DTD SVG 1.1//EN" "http://www.w3.org/Graphics/SVG/1.1/DTD/svg11.dtd"><svg t="1566452643357" class="icon" viewBox="0 0 1024 1024" version="1.1" xmlns="http://www.w3.org/2000/svg" p-id="1351" xmlns:xlink="http://www.w3.org/1999/xlink" width="200" height="200"><defs><style type="text/css"></style></defs><path d="M800 960H224c-52.928 0-96-43.072-96-96V224c0-52.928 43.072-96 96-96h448c17.696 0 32 14.336 32 32s-14.304 32-32 32H224c-17.632 0-32 14.368-32 32v640c0 17.664 14.368 32 32 32h576c17.664 0 32-14.336 32-32V352c0-17.664 14.304-32 32-32s32 14.336 32 32v512c0 52.928-43.072 96-96 96z" fill="" p-id="1352"></path><path d="M612 448a31.912 31.912 0 0 1-22.624-9.376c-12.512-12.512-12.512-32.736 0-45.248L907.392 75.36c12.512-12.512 32.736-12.512 45.248 0s12.512 32.736 0 45.248L634.624 438.624C628.384 444.896 620.192 448 612 448zM480 448H288c-17.664 0-32-14.336-32-32s14.336-32 32-32h192c17.664 0 32 14.336 32 32s-14.336 32-32 32zM672 640H288c-17.664 0-32-14.304-32-32s14.336-32 32-32h384c17.696 0 32 14.304 32 32s-14.304 32-32 32z" fill="" p-id="1353"></path></svg>