<?xml version="1.0" standalone="no"?><!DOCTYPE svg PUBLIC "-//W3C//DTD SVG 1.1//EN" "http://www.w3.org/Graphics/SVG/1.1/DTD/svg11.dtd"><svg t="1567584900559" class="icon" viewBox="0 0 1024 1024" version="1.1" xmlns="http://www.w3.org/2000/svg" p-id="2466" xmlns:xlink="http://www.w3.org/1999/xlink" width="200" height="200"><defs><style type="text/css"></style></defs><path d="M671.327752 609.423867c-12.461823 0-16.912182 5.340635-16.912182 5.340635L484.406548 695.76328 314.396503 612.983949c-5.340635-2.669806-10.68127-3.560082-16.912182-4.450359-21.36254-2.669806-31.153534 12.461823-31.153534 27.593452 0 9.790994 6.230911 17.802458 14.241352 22.252817l186.921203 92.570325 0 0c5.340635 2.669806 10.68127 5.340635 16.912182 5.340635 6.230911 0 11.571546-1.780553 16.912182-5.340635l0 0 186.921203-89.900519c8.010441-5.340635 14.241352-14.241352 14.241352-24.032346C702.482309 621.884666 688.239933 609.423867 671.327752 609.423867z" p-id="2467"></path><path d="M789.711999 337.941755C770.130012 241.811348 687.349657 170.602539 591.219249 170.602539c-78.328973 0-149.537781 48.065715-182.470845 120.163777-16.912182-7.121188-34.713616-9.790994-53.40635-9.790994-77.438697 0-140.636041 60.526515-148.647505 138.856511-75.659167 7.121188-135.295406 73.878614-135.295406 153.98814 0 80.999802 60.526515 147.757229 137.075959 153.98814l0-34.713616c-56.966433-6.230911-102.362342-56.966433-102.362342-119.273501 0-66.757426 51.625798-121.054053 116.603695-121.054053l0 0 16.912182 0 0-18.691711c0.890276-65.86715 51.625798-119.273501 114.823142-119.273501 18.691711 0 37.384445 4.450359 54.296627 14.241352l17.802458 9.790994 7.121188-18.691711c24.032346-68.537979 87.22969-114.823142 157.548222-114.823142 82.779332 0 154.878416 64.977897 166.44894 151.317311l1.780553 13.351076 14.241352 0.890276c80.999802 5.340635 145.086399 76.54842 145.086399 161.998581 0 89.010243-69.428256 161.998581-154.877393 161.998581l-8.900717 0 0 33.824363 8.900717 0c104.141872 0 188.701756-88.119967 188.701756-195.822944C952.600857 434.073186 881.392048 351.293855 789.711999 337.941755z" p-id="2468"></path><path d="M671.327752 707.334827c-12.461823 0-16.912182 5.340635-16.912182 5.340635L484.406548 793.675264l-170.010045-82.779332c-5.340635-2.669806-10.68127-3.560082-16.912182-4.450359-21.36254-2.669806-31.153534 12.461823-31.153534 27.593452 0 9.790994 6.230911 17.802458 14.241352 22.252817l186.921203 92.570325 0 0c5.340635 2.669806 10.68127 5.340635 16.912182 5.340635 6.230911 0 11.571546-1.780553 16.912182-5.340635l0 0 186.921203-89.900519c8.010441-5.340635 14.241352-14.241352 14.241352-24.032346C702.482309 719.79665 688.239933 707.334827 671.327752 707.334827z" p-id="2469"></path><path d="M688.239933 513.292436 688.239933 513.292436l-186.921203-92.570325 0 0c-5.340635-2.669806-10.68127-4.450359-16.912182-4.450359-6.230911 0-12.461823 1.780553-16.912182 5.340635l0 0-186.921203 90.790796 0 0c-8.010441 4.450359-14.241352 12.461823-14.241352 22.252817s6.230911 17.802458 14.241352 22.252817l0 0 186.921203 91.681072 0 0c5.340635 2.669806 10.68127 5.340635 16.912182 5.340635 6.230911 0 11.571546-1.780553 16.912182-5.340635l0 0 186.921203-91.681072 0 0c8.010441-5.340635 14.241352-12.461823 14.241352-22.252817C702.482309 526.643512 696.251398 518.633071 688.239933 513.292436z" p-id="2470"></path></svg>