<?xml version="1.0" standalone="no"?><!DOCTYPE svg PUBLIC "-//W3C//DTD SVG 1.1//EN" "http://www.w3.org/Graphics/SVG/1.1/DTD/svg11.dtd"><svg t="1583915383672" class="icon" viewBox="0 0 1024 1024" version="1.1" xmlns="http://www.w3.org/2000/svg" p-id="1790" id="mx_n_1583915383673" data-spm-anchor-id="a313x.7781069.0.i0" xmlns:xlink="http://www.w3.org/1999/xlink" width="200" height="200"><defs><style type="text/css"></style></defs><path d="M395.689 960.278c-18.8 0-44.9-8.8-75-43l-295.1-336c-34.1-38.8-34.1-99.6 0-138.5l295.2-336c14.2-16.1 28.5-27.9 42.7-34.9 22.9-11.4 41.1-8.7 52.5-4.4 17 6.4 45.5 26.9 45.5 92.3v18.2c0 17.7-14.3 32-32 32s-32-14.3-32-32v-18.2c0-17.8-2.8-26.9-4.6-31-4.1 1.8-12.2 6.9-23.9 20.2l-295.3 336c-12.6 14.4-12.6 39.6 0 53.9l295.2 336c11.7 13.3 19.8 18.4 23.9 20.2 1.8-4.1 4.6-13.2 4.6-31v-240.4c0-17.7 14.3-32 32-32s32 14.3 32 32v240.6c0 21.5-3 39.7-9 54.4-9.7 23.6-25.2 33.7-36.5 37.9-5.2 2-12 3.7-20.2 3.7zM992.089 842.478c-5.7 0-11.5-1.6-16.7-4.6-142.4-86.6-201-114.1-259.5-134.5-72.7-25.4-149.8-39.1-284.2-50.3-17.7-1.5-30.7-17-29.3-34.6 1.5-17.7 17-30.7 34.6-29.3 140.3 11.7 221.6 26.2 300 53.6 62.9 22 123.4 52.7 200.4 97.6-29.3-83.9-68-155.7-115.5-214.4-48.8-60.1-107-106.7-173.1-138.4-113.4-54.3-212.4-46.1-213.4-46.1-17.6 1.7-33.2-11.3-34.9-28.8s11.3-33.2 28.8-34.9c4.6-0.5 115-10.2 243.7 50.3 75.3 35.5 141.6 87.7 196.9 155.5 68.2 83.5 119.8 190.7 153 318.7 3.3 12.6-1.5 26-11.8 33.8-5.6 4.2-12.2 6.4-19 6.4z" p-id="1791"></path></svg>