<?xml version="1.0" standalone="no"?><!DOCTYPE svg PUBLIC "-//W3C//DTD SVG 1.1//EN" "http://www.w3.org/Graphics/SVG/1.1/DTD/svg11.dtd"><svg t="1583756974097" class="icon" viewBox="0 0 1024 1024" version="1.1" xmlns="http://www.w3.org/2000/svg" p-id="3740" xmlns:xlink="http://www.w3.org/1999/xlink" width="200" height="200"><defs><style type="text/css"></style></defs><path d="M384.703779 432.004061h255.988232c17.672498 0 31.998785 14.326287 31.998785 31.998785s-14.326287 31.998785-31.998785 31.998785H384.703779c-17.672498 0-31.998785-14.326287-31.998785-31.998785s14.326287-31.998785 31.998785-31.998785zM160.714332 336.00873h-43.796482c-1.234107 0-2.463098 0.14224-3.66446 0.425695-8.600889 2.0241-13.933337 10.637268-11.909237 19.238157l120.464629 511.975441a16.000416 16.000416 0 0 0 15.573697 12.334933H788.011264a15.998369 15.998369 0 0 0 15.573697-12.334933L924.04959 355.672582c0.282433-1.200338 0.425695-2.430352 0.425696-3.66446 0-8.836249-7.163143-15.999392-15.999393-15.999392H160.714332z m63.997569-63.99757h575.971987l-23.154349-46.308698a31.998785 31.998785 0 0 0-28.619828-17.688871H426.773943a31.996738 31.996738 0 0 1-17.83418-5.430686l-79.154781-53.135175a31.996738 31.996738 0 0 0-17.834181-5.430686h-55.241138c-17.672498 0-31.998785 14.326287-31.998785 31.998785v95.995331z m-63.997569 0v-95.995331c0-53.016471 42.97886-95.995331 95.995331-95.995331h55.241138a95.999424 95.999424 0 0 1 53.503565 16.293081l71.064522 47.704489h312.390823c36.360116 0 69.600171 20.542872 85.860507 53.064566l37.464263 74.928526h36.242436c44.180222 0 79.995939 35.815717 79.995938 79.995939 0 6.16849-0.713244 12.317537-2.12643 18.322298L865.881796 882.304837c-8.502651 36.136012-40.74703 61.673641-77.869508 61.673642H237.383502c-37.122479 0-69.366857-25.538653-77.869508-61.673642L39.048341 370.329397c-10.119475-43.00649 16.540721-86.073354 59.547211-96.191806a79.977519 79.977519 0 0 1 18.322298-2.126431H160.714332z" p-id="3741"></path></svg>