<?xml version="1.0" standalone="no"?><!DOCTYPE svg PUBLIC "-//W3C//DTD SVG 1.1//EN" "http://www.w3.org/Graphics/SVG/1.1/DTD/svg11.dtd"><svg t="1582638886782" class="icon" viewBox="0 0 1024 1024" version="1.1" xmlns="http://www.w3.org/2000/svg" p-id="6105" xmlns:xlink="http://www.w3.org/1999/xlink" width="200" height="200"><defs><style type="text/css"></style></defs><path d="M512 1024a512 512 0 1 1 512-512 512 512 0 0 1-512 512z m0-960a448 448 0 1 0 416.736 611.52A27.552 27.552 0 0 1 928 672a31.424 31.424 0 0 1 10.656-23.36A448 448 0 0 0 512 64z m246.624 342.72l-288 288A32 32 0 0 1 448 704a31.52 31.52 0 0 1-24.256-11.84l-0.32 0.32-160-192 0.32-0.32A31.392 31.392 0 0 1 256 480a32 32 0 0 1 32-32 31.52 31.52 0 0 1 24.256 11.84l0.32-0.32 137.6 165.12 263.232-263.36a32.064 32.064 0 0 1 45.216 45.44z" p-id="6106"></path></svg>