<?xml version="1.0" standalone="no"?><!DOCTYPE svg PUBLIC "-//W3C//DTD SVG 1.1//EN" "http://www.w3.org/Graphics/SVG/1.1/DTD/svg11.dtd"><svg t="1568080297815" class="icon" viewBox="0 0 1024 1024" version="1.1" xmlns="http://www.w3.org/2000/svg" p-id="3684" xmlns:xlink="http://www.w3.org/1999/xlink" width="200" height="200"><defs><style type="text/css"></style></defs><path d="M512 203.084325L577.199954 400.072815l14.522762 43.887556h244.308215l-157.179832 131.697461-31.530111 26.41665 10.937097 39.653115 56.411801 204.547652-165.589363-117.718075-37.080523-26.360367-37.080523 26.361391-165.597549 117.722168 56.418964-204.552769 10.937096-39.652092-31.53011-26.417673-157.179832-131.697461h244.304121l14.526855-43.887556 65.200978-196.98849m0-139.063219c-11.816117 0-23.63121 6.791683-28.127617 20.375049l-97.82705 295.566646H93.719498c-27.710109 0-40.267099 34.785248-18.987446 52.612265L304.048831 624.711038l-82.039481 297.444413c-5.655813 20.513196 10.561543 37.82242 28.662806 37.82242 5.698792 0 11.585873-1.717108 17.030885-5.588275l244.296959-173.672458L756.301052 954.389596c5.445012 3.873214 11.335163 5.588275 17.030885 5.588275 18.10024 0 34.31862-17.310248 28.65462-37.82242L719.951169 624.712061l229.316779-192.135972c21.280676-17.827017 8.725732-52.612265-18.991539-52.612264H637.954667L540.127617 84.396155c-4.496407-13.583366-16.311501-20.37505-28.127617-20.375049z" p-id="3685"></path></svg>