<?xml version="1.0" standalone="no"?><!DOCTYPE svg PUBLIC "-//W3C//DTD SVG 1.1//EN" "http://www.w3.org/Graphics/SVG/1.1/DTD/svg11.dtd"><svg t="1568080682208" class="icon" viewBox="0 0 1024 1024" version="1.1" xmlns="http://www.w3.org/2000/svg" p-id="3920" xmlns:xlink="http://www.w3.org/1999/xlink" width="200" height="200"><defs><style type="text/css"></style></defs><path d="M458.07995 409.653007l95.525633-110.221334-5.834892-5.834892c-39.451524-39.451524-44.101427-101.8292-10.936073-146.694013l35.615149-48.179303c10.505261-14.210653 30.541597-17.21508 44.75225-6.709818a32.04995 32.04995 0 0 1 3.605108 3.104711L929.232636 403.543869c12.495592 12.495592 12.495592 32.756031 0 45.252647a32.034601 32.034601 0 0 1-3.605107 3.104711L877.448226 487.516376c-44.864814 33.165354-107.243513 28.515451-146.694013-10.936073l-5.833869-5.834892-110.221334 95.525633c56.082296 117.169583 10.994402 239.661382-88.567151 339.223958L355.978551 735.342718 143.656841 930.183288c-13.06455 11.989055-33.602306 11.762905-46.28107-0.915859l-1.648546-1.648547c-12.495592-12.495592-12.783141-33.407877-0.977257-46.342467l194.289008-212.873272L118.855992 498.220159c99.561553-99.561553 222.054375-144.649448 339.223958-88.567152z" p-id="3921"></path></svg>