<?xml version="1.0" standalone="no"?><!DOCTYPE svg PUBLIC "-//W3C//DTD SVG 1.1//EN" "http://www.w3.org/Graphics/SVG/1.1/DTD/svg11.dtd"><svg t="1583504038959" class="icon" viewBox="0 0 1024 1024" version="1.1" xmlns="http://www.w3.org/2000/svg" p-id="3617" xmlns:xlink="http://www.w3.org/1999/xlink" width="200" height="200"><defs><style type="text/css"></style></defs><path d="M512 416.681074c-53.013401 0-95.995331 42.98193-95.995331 95.995331s42.98193 95.995331 95.995331 95.995332 95.995331-42.98193 95.995331-95.995332-42.98193-95.995331-95.995331-95.995331m-351.983563 0c-53.013401 0-95.995331 42.98193-95.995331 95.995331s42.98193 95.995331 95.995331 95.995332 95.995331-42.98193 95.995331-95.995332-42.98193-95.995331-95.995331-95.995331m703.966103 0c-53.013401 0-95.995331 42.98193-95.995331 95.995331s42.98193 95.995331 95.995331 95.995332 95.995331-42.98193 95.995331-95.995332-42.98193-95.995331-95.995331-95.995331" p-id="3618"></path></svg>