<?xml version="1.0" standalone="no"?><!DOCTYPE svg PUBLIC "-//W3C//DTD SVG 1.1//EN" "http://www.w3.org/Graphics/SVG/1.1/DTD/svg11.dtd"><svg t="1568080701247" class="icon" viewBox="0 0 1024 1024" version="1.1" xmlns="http://www.w3.org/2000/svg" p-id="4038" xmlns:xlink="http://www.w3.org/1999/xlink" width="200" height="200"><defs><style type="text/css"></style></defs><path d="M755.681952 96.019891l-3.796466 20.143782c-4.790096 25.41074-27.03268 43.853787-52.889581 43.853787h-94.111425l-5.205558 58.305941-13.068644 146.363485-4.653996 52.116985 50.154283 14.916734c106.232486 31.594579 148.201343 104.747669 162.039513 176.276773H229.849922c13.83817-71.529103 55.80805-144.682193 162.040536-176.276773l50.154284-14.916734-4.653997-52.116985-13.068643-146.363485-5.205559-58.305941H325.006142c-25.856901 0-48.100508-18.442024-52.889581-43.852764L268.317025 96.019891h487.364927m38.59297-63.996547H229.724055c-1.988284 0-3.972475 0.185218-5.925966 0.553609-17.366529 3.273557-28.791743 20.004613-25.518187 37.372165l10.945283 58.069557c10.494005 55.672974 59.125609 95.995331 115.779934 95.995332h35.573193l13.068643 146.363485c-147.627269 43.904952-213.630519 161.757081-213.630518 301.615409h304.672024l13.141298 287.907199c0.799202 17.494443 15.789615 32.077579 33.460066 32.077579h2.331092c17.930371 0 32.612769-14.361079 33.373085-32.077579l12.360516-287.907199h304.628022c0-139.858328-66.002226-257.710456-213.630519-301.615409l13.068644-146.363485h35.574216c56.653301 0 105.284905-40.322357 115.779934-95.995332l10.944259-58.069557c0.36839-1.954515 0.553609-3.939729 0.553609-5.926989 0.001023-17.672498-14.32424-31.998785-31.997761-31.998785z" p-id="4039"></path></svg>