<?xml version="1.0" standalone="no"?><!DOCTYPE svg PUBLIC "-//W3C//DTD SVG 1.1//EN" "http://www.w3.org/Graphics/SVG/1.1/DTD/svg11.dtd"><svg t="1567676392237" class="icon" viewBox="0 0 1024 1024" version="1.1" xmlns="http://www.w3.org/2000/svg" p-id="2817" xmlns:xlink="http://www.w3.org/1999/xlink" width="200" height="200"><defs><style type="text/css"></style></defs><path d="M780.8 64 160 64C102.4 64 64 108.8 64 160l0 704C64 915.2 102.4 960 160 960l704 0c51.2 0 96-44.8 96-96L960 211.2 780.8 64zM320 128l96 0 0 128 192 0L608 128 704 128c0 0 0 0 0 0l0 224C704 371.2 684.8 384 672 384l-320 0C332.8 384 320 371.2 320 352L320 128zM896 864c0 19.2-12.8 32-32 32l-704 0C140.8 896 128 883.2 128 864l0-704C128 140.8 140.8 128 160 128L256 128l0 224C256 403.2 294.4 448 352 448l320 0C723.2 448 768 403.2 768 352L768 128l128 108.8L896 864zM768 544C768 563.2 748.8 576 736 576l-448 0C268.8 576 256 563.2 256 544l0 0C256 524.8 268.8 512 288 512l448 0C748.8 512 768 524.8 768 544L768 544zM768 672c0 19.2-12.8 32-32 32l-448 0C268.8 704 256 691.2 256 672l0 0C256 652.8 268.8 640 288 640l448 0C748.8 640 768 652.8 768 672L768 672zM768 800c0 19.2-12.8 32-32 32l-448 0C268.8 832 256 819.2 256 800l0 0C256 780.8 268.8 768 288 768l448 0C748.8 768 768 780.8 768 800L768 800z" p-id="2818"></path></svg>