<?xml version="1.0" standalone="no"?><!DOCTYPE svg PUBLIC "-//W3C//DTD SVG 1.1//EN" "http://www.w3.org/Graphics/SVG/1.1/DTD/svg11.dtd"><svg t="1581415259492" class="icon" viewBox="0 0 1024 1024" version="1.1" xmlns="http://www.w3.org/2000/svg" p-id="5433" xmlns:xlink="http://www.w3.org/1999/xlink" width="200" height="200"><defs><style type="text/css"></style></defs><path d="M767.987209 543.998785h-63.996547c-17.672498 0-31.998785 14.326287-31.998784 31.998785s14.326287 31.998785 31.998784 31.998784h63.996547c17.672498 0 31.998785-14.326287 31.998784-31.998784s-14.326287-31.998785-31.998784-31.998785zM256.011768 543.998785c-17.672498 0-31.998785 14.326287-31.998785 31.998785s14.326287 31.998785 31.998785 31.998784h287.985994c17.672498 0 31.998785-14.326287 31.998784-31.998784s-14.326287-31.998785-31.998784-31.998785H256.011768zM767.987209 384.005884H256.011768c-17.672498 0-31.998785 14.326287-31.998785 31.998785s14.326287 31.998785 31.998785 31.998785h511.975441c17.672498 0 31.998785-14.326287 31.998784-31.998785s-14.326287-31.998785-31.998784-31.998785z" p-id="5434"></path><path d="M863.98254 128.018675h-63.996547c-17.672498 0-31.998785 14.326287-31.998784 31.998785s14.326287 31.998785 31.998784 31.998785h63.996547c17.672498 0 31.998785 14.326287 31.998785 31.998785v639.969556c0 17.672498-14.326287 31.998785-31.998785 31.998785H160.016437c-17.672498 0-31.998785-14.326287-31.998785-31.998785V224.014007c0-17.672498 14.326287-31.998785 31.998785-31.998785h63.996546c17.672498 0 31.998785-14.326287 31.998785-31.998785s-14.326287-31.998785-31.998785-31.998785h-63.996546c-53.016471 0-95.995331 42.97886-95.995331 95.995331v639.969557c0 53.016471 42.97886 95.995331 95.995331 95.995331h703.966103c53.016471 0 95.995331-42.97886 95.995331-95.995331V224.014007c0-53.017494-42.977837-95.995331-95.995331-95.995332z" p-id="5435"></path><path d="M320.009338 256.011768c17.672498 0 31.998785-14.326287 31.998784-31.998785V96.019891c0-17.672498-14.326287-31.998785-31.998784-31.998785s-31.998785 14.326287-31.998785 31.998785v127.994116c0 17.671475 14.326287 31.997762 31.998785 31.997761zM416.004669 192.015222h191.990662c17.672498 0 31.998785-14.326287 31.998785-31.998785s-14.326287-31.998785-31.998785-31.998785H416.004669c-17.672498 0-31.998785 14.326287-31.998785 31.998785s14.326287 31.998785 31.998785 31.998785zM703.990662 256.011768c17.672498 0 31.998785-14.326287 31.998785-31.998785V96.019891c0-17.672498-14.326287-31.998785-31.998785-31.998785s-31.998785 14.326287-31.998784 31.998785v127.994116c0 17.671475 14.326287 31.997762 31.998784 31.997761z" p-id="5436"></path></svg>