<?xml version="1.0" standalone="no"?><!DOCTYPE svg PUBLIC "-//W3C//DTD SVG 1.1//EN" "http://www.w3.org/Graphics/SVG/1.1/DTD/svg11.dtd"><svg t="1581161976558" class="icon" viewBox="0 0 1024 1024" version="1.1" xmlns="http://www.w3.org/2000/svg" p-id="8608" xmlns:xlink="http://www.w3.org/1999/xlink" width="200" height="200"><defs><style type="text/css"></style></defs><path d="M478.863299 620.551298l252.048503-327.20932-328.057641 252.703419a63.995523 63.995523 0 0 1-67.081815 6.833639l-232.429676-113.239064c-31.774681-15.479553-44.983517-53.78702-29.502941-85.561701a63.987337 63.987337 0 0 1 37.527708-32.761148l761.272273-250.495124c33.57263-11.047614 69.747527 7.213285 80.793095 40.786938a63.995523 63.995523 0 0 1 0 40.006156L703.099363 912.391063c-11.045567 33.573653-47.219441 51.834552-80.793095 40.786938a64.00064 64.00064 0 0 1-37.595246-32.894177L471.965192 687.501106a63.995523 63.995523 0 0 1 6.898107-66.949808z" p-id="8609"></path></svg>