<?xml version="1.0" standalone="no"?><!DOCTYPE svg PUBLIC "-//W3C//DTD SVG 1.1//EN" "http://www.w3.org/Graphics/SVG/1.1/DTD/svg11.dtd"><svg t="1581161519841" class="icon" viewBox="0 0 1024 1024" version="1.1" xmlns="http://www.w3.org/2000/svg" p-id="2030" xmlns:xlink="http://www.w3.org/1999/xlink" width="200" height="200"><defs><style type="text/css"></style></defs><path d="M537 138.3v-21.9h95v-50H392v50h95v21.9c-214.8 12.9-385 191.2-385 409.2 0 226.4 183.6 410 410 410s410-183.6 410-410c0-218-170.2-396.3-385-409.2z m229.6 663.8c-33.1 33.1-71.6 59-114.4 77.2-44.4 18.8-91.5 28.3-140.1 28.3s-95.8-9.5-140.1-28.3c-42.9-18.1-81.4-44.1-114.4-77.2-33.1-33.1-59-71.6-77.2-114.4-18.8-44.4-28.3-91.5-28.3-140.1s9.5-95.8 28.3-140.1c18.1-42.9 44.1-81.4 77.2-114.4s71.6-59 114.4-77.2c44.4-18.8 91.5-28.3 140.1-28.3s95.8 9.5 140.1 28.3c42.8 18.1 81.3 44 114.4 77.1s59 71.6 77.2 114.4c18.8 44.4 28.3 91.5 28.3 140.1s-9.5 95.8-28.3 140.1c-18.2 42.9-44.2 81.4-77.2 114.5zM537 256.9h-50v-50h50v50z m-50 581.3h50v50h-50v-50zM171.4 522.6h50v50h-50v-50z m681.2 0v50h-50v-50h50z m-333.3 29l165.9 70-19.4 46.1-188.4-79.5-74.1-273.6 48.3-13.1 67.7 250.1z" fill="" p-id="2031"></path></svg>