<?xml version="1.0" encoding="utf-8"?>
<!-- Generator: Adobe Illustrator 23.1.0, SVG Export Plug-In . SVG Version: 6.00 Build 0)  -->
<svg version="1.1" id="图层_1" xmlns="http://www.w3.org/2000/svg" xmlns:xlink="http://www.w3.org/1999/xlink" x="0px" y="0px"
	 viewBox="0 0 1024 1024" style="enable-background:new 0 0 1024 1024;" xml:space="preserve">
<style type="text/css">
	.st0{fill:url(#SVGID_1_);}
	.st1{fill:url(#SVGID_2_);}
</style>
<g>
	<g>
		<g>
			<linearGradient id="SVGID_1_" gradientUnits="userSpaceOnUse" x1="338.7078" y1="327.4662" x2="809.5402" y2="887.981">
				<stop  offset="0" style="stop-color:#4995D1"/>
				<stop  offset="1" style="stop-color:#E53351"/>
			</linearGradient>
			<path class="st0" d="M278.2,251.5L278.2,251.5c0,55.7,45.1,100.8,100.8,100.8h110.5c21.9,0,40.6,7.7,56.1,23.2
				c15.8,15.5,23.7,34.2,23.7,56.1c0,22.2-7.9,41.1-23.7,56.6c-15.5,15.5-34.2,23.2-56.1,23.2l-110.9-0.2
				c-55.4-0.1-100.4,44.8-100.4,100.2v0h164.4l127.5,220.8c30.5-12.9,57.8-29.7,81.8-50.4L548.3,602.2
				c35.7-12.3,64.7-33.8,87.2-64.4c22.8-31.6,34.2-66.9,34.2-106.1c0-49.7-17.5-92.2-52.6-127.6c-35.4-35.7-77.9-53.2-127.6-52.6
				h-1.8H278.2z"/>
		</g>
		<linearGradient id="SVGID_2_" gradientUnits="userSpaceOnUse" x1="302.1442" y1="358.1796" x2="772.9766" y2="918.6944">
			<stop  offset="0" style="stop-color:#4995D1"/>
			<stop  offset="1" style="stop-color:#E53351"/>
		</linearGradient>
		<path class="st1" d="M651.7,781.9c-24.1,20.7-51.4,37.5-81.8,50.4c-50.9,21.6-110.7,32.4-179.5,32.4H256.7V611.4V511V352.3V251.5
			h0c-57.9,0-104.9,46.9-104.9,104.9v518.5c0,46.8,37.9,84.7,84.7,84.7H389c116.7,0,214.6-26.5,293.8-79.4
			c6.2-4.1,12.2-8.4,18.2-12.8c13.8-10.3,27.1-21.5,39.7-33.6c87.6-83.8,131.4-194.8,131.4-333c0-290.9-157.7-436.3-473.1-436.3
			H151.9c0,52.4,42.5,94.9,94.9,94.9h10h12.6h127.2c243.8,0,365.8,114.6,365.8,343.9c0,115.3-32.7,204.3-98,267.1L651.7,781.9z"/>
	</g>
</g>
</svg>
