<?xml version="1.0" standalone="no"?><!DOCTYPE svg PUBLIC "-//W3C//DTD SVG 1.1//EN" "http://www.w3.org/Graphics/SVG/1.1/DTD/svg11.dtd"><svg t="1568165719826" class="icon" viewBox="0 0 1024 1024" version="1.1" xmlns="http://www.w3.org/2000/svg" p-id="2267" xmlns:xlink="http://www.w3.org/1999/xlink" width="200" height="200"><defs><style type="text/css"></style></defs><path d="M853.2 311.3c-27.8-63.5-67.2-114.6-118.1-153.4-28-20.8-60.7-35.9-98.2-45.4S552 98.2 494.6 98.2H129.7v862.1h355.2c56.7 0 105.5-6.2 146.4-18.6 40.9-12.4 76.6-31.5 107.1-57.3 54.2-46.6 93.8-98.8 118.9-156.6C882.4 670 895 602.1 895 523.9c-0.1-78.3-14-149.2-41.8-212.6zM595.3 554.1s176.4-15.9 224.2-50.5c0 0-34.4 129.9-156.4 138.6-122 8.7-262-7.2-262-7.2s156.6 31.8 270 18.8c0 0-40.5 28.4-189.8 12.3 0 0 101.8 19.5 174.7 10.8 0 0-36.8 65.7-119.8 65-48.1-0.4-96.4-11.7-131-23.1 34.9 15 76.2 32.8 78.4 33.9 0 0-137.1-33.7-142.9-40.4 0 0 84.5 55.6 122 53.4 0 0-88.1 32.6-135.7 0.1-47.6-32.5-69.3-67.2-97.4-68.6 0 0 78.7 85.9 104.7 89.5 0 0-55.8 42.9-100.3-46.2-5.8-11.6-7.9-31.4-23.1-35.4 0 0-8.4-75.8 27.4-131.4 23.4-36.3 64.5-98.3 198.8-154.6C503.6 391.2 698.8 329 797.7 233c0 0-90.2 132.8-189.1 156.6 0 0 155.2-38.2 218.7-128.5 0 0 31.8 139.3-65.7 204.3 0 0-92.4 56.3-228.4 61.3 0 0 224.9-8.6 302.8-62.1-0.3 0-31.1 54-240.7 89.5z" p-id="2268"></path></svg>