<?xml version="1.0" standalone="no"?><!DOCTYPE svg PUBLIC "-//W3C//DTD SVG 1.1//EN" "http://www.w3.org/Graphics/SVG/1.1/DTD/svg11.dtd"><svg t="1568628929760" class="icon" viewBox="0 0 1024 1024" version="1.1" xmlns="http://www.w3.org/2000/svg" p-id="11547" xmlns:xlink="http://www.w3.org/1999/xlink" width="200" height="200"><defs><style type="text/css"></style></defs><path d="M830.445888 127.808134 177.488558 127.808134c-51.880484 0-89.537324 40.112721-89.537324 95.370041L87.951234 702.279604c0 53.415409 35.917258 89.332667 89.537324 89.332667l191.354052 0L483.348056 902.84321c6.139702 6.139702 14.223643 9.209553 22.307585 9.209553 8.18627 0 16.270211-3.172179 22.512241-9.311882l112.35655-111.026282 189.921455 0c53.415409 0 89.332667-35.917258 89.332667-89.332667L919.778555 223.178175C919.778555 167.920855 882.224043 127.808134 830.445888 127.808134zM856.334966 702.279604c0 18.419107-7.469971 25.889078-25.889078 25.889078L629.268312 728.168682c-0.409313 0-0.818627 0-1.22794 0-8.390926-0.204657-16.884181 2.967523-23.22854 9.311882l-99.360847 97.92825-101.305086-98.132907c-6.446687-6.344359-14.837614-9.41421-23.22854-9.107225-0.409313 0-0.818627 0-1.22794 0L177.488558 728.168682c-18.521435 0-26.093734-7.469971-26.093734-25.889078L151.394824 223.178175c0-9.618867 2.558209-31.926451 26.093734-31.926451l652.95733 0c23.330868 0 25.889078 22.307585 25.889078 31.926451L856.334966 702.279604z" p-id="11548"></path><path d="M312.255021 456.486859m-56.280604 0a55 55 0 1 0 112.561207 0 55 55 0 1 0-112.561207 0Z" p-id="11549"></path><path d="M512.818627 456.486859m-56.280604 0a55 55 0 1 0 112.561207 0 55 55 0 1 0-112.561207 0Z" p-id="11550"></path><path d="M712.051964 455.770561m-56.280604 0a55 55 0 1 0 112.561207 0 55 55 0 1 0-112.561207 0Z" p-id="11551"></path></svg>