<?xml version="1.0" standalone="no"?><!DOCTYPE svg PUBLIC "-//W3C//DTD SVG 1.1//EN" "http://www.w3.org/Graphics/SVG/1.1/DTD/svg11.dtd"><svg t="1586531586442" class="icon" viewBox="0 0 1024 1024" version="1.1" xmlns="http://www.w3.org/2000/svg" p-id="2527" xmlns:xlink="http://www.w3.org/1999/xlink" width="200" height="200"><defs><style type="text/css"></style></defs><path d="M289.013833 389.741547c-30.743156 0-55.704033 25.857868-55.704033 57.785222 0 31.906767 24.961076 57.764236 55.704033 57.764236 30.788126 0 55.704632-25.857469 55.704632-57.764236C344.718265 415.599416 319.801758 389.741547 289.013833 389.741547L289.013833 389.741547 289.013833 389.741547zM511.832162 389.741547c-30.783129 0-55.704632 25.857868-55.704632 57.785222 0 31.906767 24.921503 57.764236 55.704632 57.764236 30.743156 0 55.66306-25.857469 55.66306-57.764236C567.495222 415.599416 542.575118 389.741547 511.832162 389.741547L511.832162 389.741547 511.832162 389.741547zM734.610518 389.741547c-30.742956 0-55.707031 25.857868-55.707031 57.785222 0 31.906767 24.964074 57.764236 55.707031 57.764236 30.73816 0 55.702234-25.857469 55.702234-57.764236C790.312552 415.599416 765.348678 389.741547 734.610518 389.741547L734.610518 389.741547 734.610518 389.741547zM846.014786 128.488877 177.647539 128.488877c-61.528684 0-111.406666 51.748315-111.406666 115.572442l0 378.055678c0 63.803541 50.972241 122.622662 113.903973 122.622662l169.785485 0c29.562357 31.527624 152.047512 145.002288 152.047512 145.002288 5.434316 5.669156 14.235348 5.669156 19.663668 0 0 0 89.686992-88.341904 148.107183-145.002288l173.728612 0c62.934131 0 113.906571-58.818921 113.906571-122.622662l0-378.055678C957.383878 180.237191 907.500898 128.488877 846.014786 128.488877L846.014786 128.488877 846.014786 128.488877zM901.676847 622.116997c0 31.896374-26.752662 65.382471-58.199341 65.382471l-170.837772 0c-20.713956 0-39.323339 21.257587-39.323339 21.257587l-119.950474 111.137249-119.948275-111.137249c0 0-22.815931-21.257587-42.390659-21.257587l-170.882142 0c-31.444681 0-58.201939-33.486096-58.201939-65.382471l0-378.055678c0-31.926754 24.919105-57.779625 55.704632-57.779625l668.367247 0c30.747953 0 55.662061 25.852872 55.662061 57.779625L901.676847 622.116997 901.676847 622.116997 901.676847 622.116997z" p-id="2528"></path></svg>