<?xml version="1.0" standalone="no"?><!DOCTYPE svg PUBLIC "-//W3C//DTD SVG 1.1//EN" "http://www.w3.org/Graphics/SVG/1.1/DTD/svg11.dtd"><svg t="1568629053491" class="icon" viewBox="0 0 1024 1024" version="1.1" xmlns="http://www.w3.org/2000/svg" p-id="16908" xmlns:xlink="http://www.w3.org/1999/xlink" width="200" height="200"><defs><style type="text/css"></style></defs><path d="M687.99127 543.998785c-17.672498 0-31.998785 14.326287-31.998785 31.998785h-0.87902c-7.959276 71.995731-68.997444 127.994116-143.114488 127.994116s-135.154189-55.999408-143.113465-127.99514h-0.87902c0-17.672498-14.326287-31.998785-31.998785-31.998784s-31.998785 14.326287-31.998785 31.998784c0 3.520173 0.568958 6.90834 1.61887 10.075473 12.828167 102.561887 100.333126 181.91519 206.371185 181.91519s193.543018-79.352279 206.371184-181.91519a31.973202 31.973202 0 0 0 1.61887-10.075473c0.001023-17.671475-14.325263-31.997762-31.997761-31.997761z" p-id="16909"></path><path d="M879.509165 449.979458c0.312108-5.952572 0.472767-11.945053 0.472767-17.975397 0-185.557136-150.426011-335.984171-335.98417-335.98417-163.039283 0-298.954813 116.130927-329.542459 270.182512C99.250468 403.864164 16.023952 512.206708 16.023952 639.994116c0 159.050436 128.935558 287.985993 287.985993 287.985993h447.978895c141.379984 0 255.988232-114.607224 255.988232-255.987208-0.001023-94.945419-51.694359-177.819918-128.467907-222.013443zM751.987816 863.98254H304.009945c-123.509988 0-223.989447-100.479459-223.989447-223.989447 0-97.202832 62.016449-182.78807 154.320715-212.9623a63.996546 63.996546 0 0 0 42.884716-48.364521c25.159006-126.693494 137.352251-218.649835 266.771833-218.649835 149.97371 0 271.986601 122.013915 271.986601 271.986601 0 4.90573-0.128937 9.776667-0.382717 14.619976a63.99757 63.99757 0 0 0 31.979342 58.821686c59.462277 34.224476 96.397491 98.041944 96.397491 166.546154 0 105.863073-86.128613 191.991686-191.990663 191.991686z" p-id="16910"></path></svg>