<?xml version="1.0" standalone="no"?><!DOCTYPE svg PUBLIC "-//W3C//DTD SVG 1.1//EN" "http://www.w3.org/Graphics/SVG/1.1/DTD/svg11.dtd"><svg t="1568628718041" class="icon" viewBox="0 0 1026 1024" version="1.1" xmlns="http://www.w3.org/2000/svg" p-id="9252" xmlns:xlink="http://www.w3.org/1999/xlink" width="200.390625" height="200"><defs><style type="text/css"></style></defs><path d="M983.514948 41.343392C983.371892 41.343392 983.371892 41.343392 983.514948 41.343392c-26.751607-26.751607-62.086616-41.343392-99.85359-41.343392l-278.24532 0c-48.782341 0-105.861973 7.009779-158.506845 59.654652-5.436155 5.436155-20.600168 20.600168-38.482258 38.482258l0 0-78.967309 78.967309c-0.143057 0.143057-0.286113 0.286113-0.286113 0.286113l0 0c-14.019559 14.019559-14.019559 36.62252 0 50.499022 14.019559 14.019559 36.479464 14.019559 50.499022 0l0 0 0 0c0 0 0.143057-0.143057 0.286113-0.286113 6.008382-6.008382 102.142498-101.999441 117.592624-117.449567 32.330819-32.187762 65.233864-38.768371 108.007823-38.768371l278.24532 0c18.597374 0 36.050293 7.295893 49.211512 20.314054 0 0 0 0 0 0 13.161218 13.161218 20.314054 30.614138 20.314054 49.068455l0.572227 0c-0.286113 3.147248-0.572227 6.437552-0.572227 10.01397l0 261.078514c0 39.483655-4.720872 80.540933-38.625314 114.588433-8.583403 8.583403-118.164851 118.021794-118.164851 118.021794l0.143057 0.143057 0 0c-14.019559 14.019559-14.019559 36.62252 0 50.499022 14.019559 14.019559 36.62252 14.019559 50.499022 0l79.396479-79.396479 0 0c19.455714-19.455714 35.621123-35.621123 38.768371-38.625314 52.78793-52.78793 59.511595-116.019 59.654652-165.087455l0.143057-271.092484C1024.715284 103.430008 1010.123498 67.951942 983.514948 41.343392L983.514948 41.343392z" p-id="9253"></path><path d="M847.324951 177.104219c-41.772562-41.772562-109.724504-41.772562-151.497066 0-41.772562 41.772562-41.772562 109.724504 0 151.497066 41.772562 41.772562 109.724504 41.772562 151.497066 0C889.097513 286.828723 889.097513 218.876781 847.324951 177.104219L847.324951 177.104219zM796.825929 278.102263c-13.876502 13.876502-36.62252 13.876502-50.499022 0-13.876502-13.876502-13.876502-36.62252 0-50.499022 13.876502-13.876502 36.62252-13.876502 50.499022 0C810.702431 241.479743 810.702431 264.225761 796.825929 278.102263L796.825929 278.102263z" p-id="9254"></path><path d="M704.411288 736.742107 704.411288 736.742107c0 0-193.698799 193.412685-195.701593 195.415479-13.161218 13.161218-30.614138 20.314054-49.211512 20.457111-18.597374 0-36.050293-7.295893-49.211512-20.457111 0 0 0 0 0 0L91.842414 614.142498c-13.161218-12.588991-20.457111-30.614138-20.457111-49.211512 0-18.597374 7.295893-35.907237 20.457111-49.068455 1.859737-1.859737 195.844649-195.701593 195.844649-195.701593l-0.143057-0.143057 0 0c14.019559-14.019559 14.019559-36.62252 0-50.499022-14.019559-14.019559-36.62252-14.019559-50.499022 0l-79.396479 79.396479 0 0c-53.789327 53.789327-115.446773 115.303716-116.44817 116.305113C14.734842 491.972059 0 527.307069 0 564.930986c0 37.623917 14.591785 72.958927 41.343392 99.710534 0 0 0 0 0 0l318.301201 318.015088c0 0 0 0 0 0 26.60855 26.60855 62.086616 41.343392 99.710534 41.343392 37.623917 0 73.101984-14.591785 99.710534-41.343392 1.144454-1.144454 62.515787-62.515787 116.305113-116.162056l0 0 79.396479-79.396479c14.019559-14.019559 14.019559-36.62252 0-50.499022C740.890752 722.865605 718.28779 722.865605 704.411288 736.742107L704.411288 736.742107z" p-id="9255"></path></svg>