<?xml version="1.0" standalone="no"?><!DOCTYPE svg PUBLIC "-//W3C//DTD SVG 1.1//EN" "http://www.w3.org/Graphics/SVG/1.1/DTD/svg11.dtd"><svg t="1568628553862" class="icon" viewBox="0 0 1024 1024" version="1.1" xmlns="http://www.w3.org/2000/svg" p-id="8159" xmlns:xlink="http://www.w3.org/1999/xlink" width="200" height="200"><defs><style type="text/css"></style></defs><path d="M244.675582 818.33285l16.799618-6.650467a59.449997 59.449997 0 0 1 47.993061 1.874697l16.20917 7.933693c56.710606 27.750017 121.235179 42.491767 186.321546 42.491767 209.413474 0 383.981325-163.998121 383.981324-351.983563S721.413474 160.016437 512 160.016437 128.018675 324.014558 128.018675 512c0 38.156018 6.891967 85.48086 16.358573 112.345718l19.104104 47.315632c14.182001 37.249369 21.36254 76.445066 21.36254 116.566855a328.276628 328.276628 0 0 1-3.685949 49.066509 383.696846 383.696846 0 0 0 63.517639-18.961864zM959.977871 512c0 221.178425-200.964034 415.980109-447.978894 415.980109-74.91113 0-149.189857-17.003256-214.792995-49.163723l-16.395412-8.040116-16.985859 6.737448c-53.035914 21.013593-109.494787 31.680537-167.82631 31.680536h-0.937348c17.353227-36.632315 26.41665-76.633355 26.416649-117.376291 0-33.505092-5.967922-66.087161-17.740036-97.065709l-18.879999-46.818305C71.028707 608.854908 64.022129 553.24538 64.022129 512.002047 64.021106 290.820552 264.98514 96.019891 512 96.019891S959.977871 290.820552 959.977871 512z" p-id="8160"></path></svg>