<?xml version="1.0" standalone="no"?><!DOCTYPE svg PUBLIC "-//W3C//DTD SVG 1.1//EN" "http://www.w3.org/Graphics/SVG/1.1/DTD/svg11.dtd"><svg t="1586531458082" class="icon" viewBox="0 0 1024 1024" version="1.1" xmlns="http://www.w3.org/2000/svg" p-id="1775" xmlns:xlink="http://www.w3.org/1999/xlink" width="200" height="200"><defs><style type="text/css"></style></defs><path d="M446.293333 810.666667C384 898.986667 262.4 921.173333 174.506667 859.733333c-87.466667-61.44-107.946667-183.893333-46.506667-273.066666a195.626667 195.626667 0 0 1 152.746667-84.48l2.133333 61.013333c-38.826667 2.986667-76.373333 23.04-100.693333 58.026667-42.666667 61.44-29.44 144.213333 29.013333 185.6 58.88 40.96 141.226667 25.173333 183.893333-35.84 13.226667-19.2 20.906667-40.106667 23.893334-61.44v-43.093334l238.08-1.706666 2.986666-4.693334c22.613333-39.253333 71.68-52.906667 110.08-30.72a81.066667 81.066667 0 0 1 29.013334 110.933334c-22.613333 38.826667-72.106667 52.48-110.506667 30.293333-17.493333-9.813333-29.866667-25.6-35.413333-43.52l-173.653334 0.853333a211.626667 211.626667 0 0 1-33.28 82.773334m310.613334-304.64c107.946667 13.226667 184.746667 110.08 171.52 216.32-13.226667 106.666667-111.36 182.186667-219.306667 168.96a197.504 197.504 0 0 1-146.346667-94.293334l52.906667-30.72a137.386667 137.386667 0 0 0 98.986667 61.866667c74.666667 8.96 140.8-41.813333 149.76-113.066667 8.96-71.253333-43.946667-136.533333-117.76-145.493333-23.04-2.56-45.226667 0.426667-65.28 7.68l-36.266667 18.773333-110.08-203.52h-9.386667a81.322667 81.322667 0 0 1-78.933333-83.2c1.28-44.373333 39.68-78.933333 84.48-77.226666 44.8 2.56 80.213333 38.826667 78.933333 83.2-0.853333 18.773333-8.106667 35.84-19.626666 49.066666l81.066666 149.76c26.453333-8.533333 55.466667-11.52 85.333334-8.106666M352 389.973333c-42.666667-100.266667 2.56-215.04 101.12-256.853333 98.986667-41.813333 213.333333 5.546667 256 105.813333 25.173333 58.453333 20.053333 122.453333-8.533333 173.653334l-52.906667-30.72c17.92-34.56 20.906667-76.8 3.84-116.48-29.013333-68.266667-106.24-101.12-172.373333-73.386667-66.56 28.16-96.426667 106.666667-67.413334 174.933333 11.946667 28.16 32 49.92 56.32 64.426667l16.64 8.96-130.986666 212.906667c1.28 2.133333 2.986667 4.693333 4.266666 8.106666 20.906667 38.826667 6.4 87.893333-32.853333 108.8-38.826667 20.906667-87.893333 5.546667-109.226667-34.56-20.906667-39.68-6.4-88.746667 32.853334-109.653333 16.64-8.96 34.986667-11.093333 52.48-7.253333l98.56-160.853334c-20.053333-18.346667-37.12-41.386667-47.786667-67.84z" fill="" p-id="1776"></path></svg>