<?xml version="1.0" standalone="no"?><!DOCTYPE svg PUBLIC "-//W3C//DTD SVG 1.1//EN" "http://www.w3.org/Graphics/SVG/1.1/DTD/svg11.dtd"><svg t="1568281453245" class="icon" viewBox="0 0 1024 1024" version="1.1" xmlns="http://www.w3.org/2000/svg" p-id="2976" xmlns:xlink="http://www.w3.org/1999/xlink" width="200" height="200"><defs><style type="text/css"></style></defs><path d="M348.328313 573.47512c-27.057239-47.446615-39.204907-95.198176-46.236044-123.205043-7.027044-28.006867-12.354376-120.150474 0-154.26034 16.32378-45.064358 52.016701-90.969874 66.485227-90.969874 0.457418 0 0.89437 0.045025 1.308809 0.138146 25.354458 5.724375 27.77253 66.605977 85.051071 106.010429 51.141774 35.18229 147.33665 38.439474 186.921204 51.689243 25.745361 8.618285 48.888454 40.683585 52.938699 62.908772 6.671956 36.56273-2.491751 70.7606-18.893302 98.604762-2.859118 4.855588-5.945409 9.600659-9.174963 14.208606-17.018605 24.279986-11.936867 37.396725 0.300852 37.396725 6.136767 0 14.07353-3.299139 21.924335-10.139941 29.369911-25.595958 54.036707-56.132438 72.605621-90.249467 24.541953-45.087894 38.428218-87.269599 38.428218-123.600039 0-179.309852-102.428857-319.984778-287.985993-319.984778S224.014007 172.698271 224.014007 352.007099c0 53.632501 26.225291 118.777197 45.997613 152.990417 19.764136 34.214243 56.567343 68.477604 78.316693 68.477604zM512 96.019891c165.148317 0 223.989447 132.23572 223.989447 255.987208 0 2.89084-0.159636 6.169513-0.550539 9.853416-17.362436-26.174126-43.091424-49.567929-73.265653-59.668985-17.815761-5.962805-39.166021-9.599635-63.891146-13.809517-35.662221-6.074346-84.503603-14.393825-107.072621-29.918403-18.920932-13.016455-28.073382-30.851659-37.764092-49.733705-12.31549-24.006763-29.189809-56.883545-69.461001-65.97562l-8.269338-1.710968h-3.171226C406.680303 113.225761 452.416973 96.019891 512 96.019891zM839.671854 739.051179l-150.711513-94.198405c-13.561877-8.484232-31.341822-5.593392-41.560558 6.655583L561.15349 755.018849a66.013483 66.013483 0 0 1-8.15575 8.1711c-27.186176 22.624277-67.590398 18.905582-90.152253-8.187473l-86.246293-103.495142c-10.249435-12.265348-27.998681-15.171538-41.560558-6.655583l-150.711514 94.198405c-75.338872 47.092551-120.306017 128.244826-120.306016 217.084177v3.843538c0 17.671475 14.31196 31.998785 31.998785 31.998785s31.998785-14.32731 31.998784-31.998785v-3.843538c0-66.6377 33.748638-127.493719 90.245374-162.804946l127.025045-79.402421 68.372204 82.042551c45.154409 54.200436 126.025275 61.559031 180.365904 16.343223a130.004913 130.004913 0 0 0 16.3115-16.343223l68.372204-82.042551 127.025045 79.402421c56.497759 35.311227 90.245374 96.167247 90.245374 162.804946v3.843538c0 17.671475 14.31196 31.998785 31.998784 31.998785s31.998785-14.32731 31.998785-31.998785v-3.843538c-0.001023-88.839351-44.967144-169.991626-120.30704-217.083154z" p-id="2977"></path></svg>