<?xml version="1.0" standalone="no"?><!DOCTYPE svg PUBLIC "-//W3C//DTD SVG 1.1//EN" "http://www.w3.org/Graphics/SVG/1.1/DTD/svg11.dtd"><svg t="1568628188569" class="icon" viewBox="0 0 1024 1024" version="1.1" xmlns="http://www.w3.org/2000/svg" p-id="7451" xmlns:xlink="http://www.w3.org/1999/xlink" width="200" height="200"><defs><style type="text/css"></style></defs><path d="M789.842982 303.225069l110.845551-63.996546c15.304568-8.836249 34.875299-3.592828 43.710524 11.712763l15.999393 27.711132c8.836249 15.304568 3.592828 34.875299-11.712763 43.710524l-110.845551 63.996546c-15.304568 8.836249-34.874275 3.592828-43.710524-11.712762l-15.999392-27.711132c-8.836249-15.304568-3.591805-34.874275 11.712762-43.710525z m47.997154 334.414419l110.845551 63.996547c15.304568 8.836249 20.547988 28.405957 11.712763 43.710524l-15.999393 27.711132c-8.836249 15.304568-28.405957 20.547988-43.710524 11.711739L789.842982 720.774931c-15.304568-8.836249-20.547988-28.405957-11.711739-43.710525l15.999392-27.711132c8.835226-15.305591 28.404933-20.549012 43.709501-11.713786z m-21.85475-172.852789h159.991877c17.672498 0 31.998785 14.326287 31.998785 31.998784v31.998785c0 17.672498-14.326287 31.998785-31.998785 31.998785H815.985386c-17.672498 0-31.998785-14.326287-31.998785-31.998785v-31.998785c0-17.672498 14.326287-31.998785 31.998785-31.998784zM176.015829 352.007099L161.02337 606.874811a129.139196 129.139196 0 0 1-17.006326 1.119497c-70.688969 0-127.994116-57.305147-127.994116-127.994116s57.305147-127.994116 127.994116-127.994116h31.998785z m109.601211-11.400654l110.997-27.748994a303.492152 303.492152 0 0 0 163.383114-104.842837l44.781926-55.977919a63.99757 63.99757 0 0 1 49.973158-24.01802h33.238009v703.966103h-27.762298a63.996546 63.996546 0 0 1-54.876841-31.070646l-43.413766-72.355934a159.25305 159.25305 0 0 0-97.936543-72.56469l-28.963658-7.240914c-17.144472-4.28663-34.518165 6.137791-38.803771 23.282262a32.007995 32.007995 0 0 0-0.708128 3.792373l-24.015973 192.125739c-2.001587 16.012695-15.613606 28.02938-31.751145 28.02938h-97.80863c-17.672498 0-31.998785-14.326287-31.998785-31.998785 0-0.626263 0.01842-1.25355 0.055259-1.87879l27.245527-463.169875c1.64343-27.92398 21.22951-51.544957 48.365545-58.328453z" p-id="7452"></path></svg>