<?xml version="1.0" standalone="no"?><!DOCTYPE svg PUBLIC "-//W3C//DTD SVG 1.1//EN" "http://www.w3.org/Graphics/SVG/1.1/DTD/svg11.dtd"><svg t="1568628253755" class="icon" viewBox="0 0 1024 1024" version="1.1" xmlns="http://www.w3.org/2000/svg" p-id="7569" xmlns:xlink="http://www.w3.org/1999/xlink" width="200" height="200"><defs><style type="text/css"></style></defs><path d="M669.444868 376.24206v-0.002047M986.211349 376.24206L759.949138 149.97678c-37.490869-37.488823-98.269118-37.488823-135.758963 0l-67.879993 67.879993L443.175495 104.725156c-37.482683-37.488823-98.260931-37.488823-135.7518 0L35.905768 376.24206c-37.490869 37.488823-37.490869 98.269118 0 135.756917l407.269727 407.275867c37.490869 37.488823 98.276281 37.488823 135.758963 0l339.397921-339.395874 67.879993-67.879993c37.489846-37.488823 37.489846-98.269118-0.001023-135.756917zM805.204855 602.50427l-22.63144 22.627347-45.255716-45.25367c-12.491499-12.495592-32.748868-12.495592-45.247531 0-12.499685 12.495592-12.499685 32.756031 0 45.25367l45.247531 45.251623-45.247531 45.251624-90.503246-90.503247c-12.499685-12.497639-32.756031-12.497639-45.255717 0-12.499685 12.495592-12.499685 32.756031 0 45.251623l90.503247 90.505294-45.24753 45.251623-135.759987-135.755894c-12.499685-12.495592-32.756031-12.495592-45.255717 0-12.499685 12.495592-12.499685 32.756031 0 45.251624l135.758964 135.758963-22.624277 22.626324c-12.499685 12.495592-32.756031 12.495592-45.255717 0L81.161485 466.747353c-12.499685-12.497639-12.499685-32.756031 0-45.25367l271.510763-271.51588c12.499685-12.495592 32.756031-12.495592 45.255717 0L511.063675 263.111466l-45.255717 45.251624c-37.490869 37.488823-37.490869 98.271164 0 135.758963l45.255717 45.251624c37.482683 37.488823 98.260931 37.488823 135.750777 0l45.255716-45.251624 113.134687 113.131617c12.491499 12.494569 12.491499 32.755008 0 45.2506z" p-id="7570"></path></svg>