<?xml version="1.0" standalone="no"?><!DOCTYPE svg PUBLIC "-//W3C//DTD SVG 1.1//EN" "http://www.w3.org/Graphics/SVG/1.1/DTD/svg11.dtd"><svg t="1568079330446" class="icon" viewBox="0 0 1024 1024" version="1.1" xmlns="http://www.w3.org/2000/svg" p-id="3448" xmlns:xlink="http://www.w3.org/1999/xlink" width="200" height="200"><defs><style type="text/css"></style></defs><path d="M160.016437 64.021106h223.989447c53.016471 0 95.995331 42.97886 95.995331 95.995331v223.989447c0 53.016471-42.97886 95.995331-95.995331 95.995331H160.016437c-53.016471 0-95.995331-42.97886-95.995331-95.995331V160.016437c0-53.016471 42.97886-95.995331 95.995331-95.995331z m0 479.977679h223.989447c53.016471 0 95.995331 42.97886 95.995331 95.995331v223.989447c0 53.016471-42.97886 95.995331-95.995331 95.995331H160.016437c-53.016471 0-95.995331-42.97886-95.995331-95.995331V639.994116c0-53.017494 42.97886-95.995331 95.995331-95.995331zM639.994116 64.021106h223.989447c53.016471 0 95.995331 42.97886 95.995331 95.995331v223.989447c0 53.016471-42.97886 95.995331-95.995331 95.995331H639.994116c-53.016471 0-95.995331-42.97886-95.995331-95.995331V160.016437c0-53.016471 42.977837-95.995331 95.995331-95.995331z m0 479.977679h223.989447c53.016471 0 95.995331 42.97886 95.995331 95.995331v223.989447c0 53.016471-42.97886 95.995331-95.995331 95.995331H639.994116c-53.016471 0-95.995331-42.97886-95.995331-95.995331V639.994116c0-53.017494 42.977837-95.995331 95.995331-95.995331z" p-id="3449"></path></svg>