<?xml version="1.0" standalone="no"?><!DOCTYPE svg PUBLIC "-//W3C//DTD SVG 1.1//EN" "http://www.w3.org/Graphics/SVG/1.1/DTD/svg11.dtd"><svg t="1581588210827" class="icon" viewBox="0 0 1024 1024" version="1.1" xmlns="http://www.w3.org/2000/svg" p-id="5650" xmlns:xlink="http://www.w3.org/1999/xlink" width="200" height="200"><defs><style type="text/css"></style></defs><path d="M702.383048 670.384263c40.534182-40.534182 65.605184-96.531544 65.605184-158.384263s-25.071002-117.850082-65.605184-158.384263c-12.496615-12.495592-12.496615-32.756031 0-45.252647 12.495592-12.496615 32.756031-12.496615 45.252647 0 52.114938 52.114938 84.349083 124.111692 84.349083 203.63691s-32.234145 151.521972-84.349083 203.63691c-12.495592 12.496615-32.756031 12.496615-45.252647 0-12.496615-12.496615-12.496615-32.757055 0-45.252647z m113.130594 113.131617C885.000226 714.029296 927.979086 618.033965 927.979086 512s-42.97886-202.029296-112.465444-271.51588c-12.495592-12.496615-12.495592-32.756031 0-45.252647 12.496615-12.496615 32.756031-12.496615 45.252646 0C941.834652 276.299837 991.976656 388.29456 991.976656 512s-50.142004 235.700163-131.209344 316.768527c-12.496615 12.496615-32.757055 12.496615-45.25367 0-12.495592-12.496615-12.495592-32.757055 0-45.252647zM312.24449 352.007099H112.019283c-8.836249 0-15.999392 7.163143-15.999392 15.999393v287.985993c0 8.836249 7.163143 15.999392 15.999392 15.999393H312.245514c25.459858 0 49.875944 10.113335 67.87897 28.116361l163.874301 163.874301V160.016437L380.12346 323.890738a95.992261 95.992261 0 0 1-67.87897 28.116361z m41.371247-92.112907L498.746138 114.76379c40.316218-40.316218 109.249193-11.762905 109.249193 45.252647v703.966103c0 57.015551-68.933999 85.568864-109.249193 45.252647L353.615737 764.105808a95.994308 95.994308 0 0 0-67.878971-28.116361H96.019891c-35.344996 0-63.996546-28.652574-63.996547-63.996546V352.007099c0-35.344996 28.652574-63.996546 63.996547-63.996546h189.716875a95.996354 95.996354 0 0 0 67.878971-28.116361z" p-id="5651"></path></svg>