<?xml version="1.0" standalone="no"?><!DOCTYPE svg PUBLIC "-//W3C//DTD SVG 1.1//EN" "http://www.w3.org/Graphics/SVG/1.1/DTD/svg11.dtd"><svg t="1568628604522" class="icon" viewBox="0 0 1024 1024" version="1.1" xmlns="http://www.w3.org/2000/svg" p-id="8277" xmlns:xlink="http://www.w3.org/1999/xlink" width="200" height="200"><defs><style type="text/css"></style></defs><path d="M270.999111 392.068514c15.256472-5.243421 36.322254-9.81146 70.468958-15.975857 14.605649-2.63706 76.119655-13.187347 90.620927-15.772218 71.978335-12.828167 118.759801-24.427342 128.256082-30.751375 9.214872-6.136767 14.537088-12.359492 18.157545-19.928888 3.716648-7.772011 4.89652-12.800537 8.903787-36.185131 2.781346-16.23066 5.090948-25.803689 10.456143-37.422307 10.524704-22.794146 29.477358-40.138162 55.830563-46.245254 63.309908-14.671141 109.989043 49.969065 155.929352 144.401808 21.614274 44.427862 40.184211 107.900475 48.832172 172.489516 3.660366-20.25123 5.5279-40.959877 5.5279-61.953004 0-192.470593-157.475568-348.705913-351.983563-348.705913S160.016437 252.254188 160.016437 444.724781c0 21.86703 2.026146 43.423999 5.993504 64.476477 13.603833-49.275263 56.190767-100.361779 104.98917-117.132744z m122.861212 316.501444c30.760584 28.005844 72.744791 45.2506 119.02893 45.2506 47.653323 0 90.747817-18.280342 121.729436-47.76384 4.852518-4.618181 9.19236-0.943488 6.383384 5.559622-23.062252 53.394071-71.76344 90.202395-128.111797 90.202395-56.412824 0-105.159038-36.891212-128.189567-90.381473-2.777253-6.447852 3.288906-8.211009 9.159614-2.867304z m530.248619-320.377728c39.291888 12.023848 67.867714 48.579415 67.867714 91.808985 0 6.91141-0.730641 13.652951-2.118244 20.150946a453.54568 453.54568 0 0 1 2.118244 43.846624c0 247.411903-200.566992 447.978894-447.978894 447.978894h-31.998785c-44.180222 0-79.995939-21.48943-79.995939-47.997154 0-26.508747 35.815717-47.998177 79.995939-47.998177 33.399691 0 62.018495 12.281721 73.997318 29.728068 183.53406-19.965727 328.235696-169.265078 341.057722-354.853937a95.427396 95.427396 0 0 1-20.360723 4.54962 408.497695 408.497695 0 0 1-24.879644 58.471716c-18.795065 36.098149-42.802852 69.090565-71.034846 97.998965-30.67258 31.407314-66.216097 12.872169-39.181371-35.307134 11.158131-19.885909 20.144806-41.281195 23.882943-62.691831 17.640776-101.021811-23.242354-230.245941-43.405579-271.692912-9.766434-20.074198-24.214495-44.939515-38.70451-65.968458 0.161682-0.961908 0.24457-1.458211 0.190335-1.142009 0.907673-5.293563 1.393743-7.311523 0.506536-5.388731a39.073924 39.073924 0 0 1-2.289135 4.235464c-17.422811-24.938995-34.659381-43.871183-43.636847-41.790801-17.334807 4.0175-15.524578 28.768207-22.605857 58.239425a48.033993 48.033993 0 0 1-0.99056-0.537235c-2.13871-1.189082-3.089361-1.852184-3.383051-2.074242 1.227967 1.209548 2.517333 2.592035 3.969405 4.263093-5.880941 23.482831-17.670451 49.741891-49.311079 70.812789-46.823422 31.182186-255.009951 52.913117-304.019155 69.755714-31.875988 10.954493-60.526515 51.714825-65.544809 79.966263-8.257058 46.476521 3.086291 130.620943 23.393803 166.015058 3.541663 6.173606 7.361665 12.205996 11.359722 18.061354 31.637558 46.335305 1.589195 60.692291-27.517726 34.647101-36.361139-32.537044-66.903759-71.351048-89.895403-114.719788a408.614351 408.614351 0 0 1-26.28976-61.154825c-47.974641-5.327332-85.282339-46.00887-85.282339-95.404883 0-43.22957 28.574802-79.785138 67.867714-91.808986 27.777647-201.181999 201.700815-356.169909 412.109966-356.169908s384.329249 154.988934 412.106895 356.170932z" p-id="8278"></path></svg>