<?xml version="1.0" standalone="no"?><!DOCTYPE svg PUBLIC "-//W3C//DTD SVG 1.1//EN" "http://www.w3.org/Graphics/SVG/1.1/DTD/svg11.dtd"><svg t="1568628356861" class="icon" viewBox="0 0 1024 1024" version="1.1" xmlns="http://www.w3.org/2000/svg" p-id="7805" xmlns:xlink="http://www.w3.org/1999/xlink" width="200" height="200"><defs><style type="text/css"></style></defs><path d="M706.544835 128.018675a63.98529 63.98529 0 0 1 48.598858 22.363334L927.979086 352.145246l-63.996546 127.856992-41.373293-41.371246c-6.249331-6.248308-14.436804-9.372461-22.624277-9.372461-8.187473 0-16.373922 3.124154-22.624277 9.372461a32.005948 32.005948 0 0 0-9.374508 22.626324v402.726247c0 17.672498-14.32731 31.998785-31.998784 31.998785H320.009338c-17.671475 0-31.998785-14.326287-31.998785-31.998785V461.256292c0-17.672498-14.32731-31.998785-31.998785-31.998785a31.996738 31.996738 0 0 0-22.624277 9.372462l-41.373293 41.371246-95.995331-127.994116 172.835394-201.64044a63.987337 63.987337 0 0 1 48.591695-22.347984h6.507204a95.969749 95.969749 0 0 1 50.130747 14.131859c54.286394 33.243125 100.253308 49.864688 137.91507 49.864688s83.628676-16.621563 137.915069-49.864688a95.967702 95.967702 0 0 1 50.130748-14.131859h6.500041m0-63.997569h-6.500041a159.889547 159.889547 0 0 0-83.558068 23.557532c-54.583153 33.422204-86.949304 40.439014-104.486726 40.439014-17.538445 0-49.903573-7.016811-104.494912-40.445154a159.88136 159.88136 0 0 0-83.550905-23.551392h-6.507204a127.823224 127.823224 0 0 0-97.182366 44.702108l-172.836417 201.635323c-19.522636 22.774703-20.600177 56.050574-2.609431 80.047104l95.995331 127.994116a63.99757 63.99757 0 0 0 83.198887 17.024745v328.558038c0 52.93256 43.060725 95.995331 95.995331 95.995331h415.98011c52.934606 0 95.995331-43.062771 95.995331-95.995331V535.424502a64.028269 64.028269 0 0 0 42.240033 7.749498 64.013943 64.013943 0 0 0 46.990221-34.528398l63.996546-127.856993c11.522428-23.027459 8.125051-50.721195-8.632611-70.278623L803.743574 108.74675c-24.335245-28.421306-59.770292-44.725644-97.198739-44.725644z" p-id="7806"></path></svg>