<?xml version="1.0" standalone="no"?><!DOCTYPE svg PUBLIC "-//W3C//DTD SVG 1.1//EN" "http://www.w3.org/Graphics/SVG/1.1/DTD/svg11.dtd"><svg t="1568628866814" class="icon" viewBox="0 0 1024 1024" version="1.1" xmlns="http://www.w3.org/2000/svg" p-id="10770" xmlns:xlink="http://www.w3.org/1999/xlink" width="200" height="200"><defs><style type="text/css"></style></defs><path d="M703.306582 956.677709l-43.00035 0c-21.731954 0-39.33896-17.613146-39.33896-39.337937s17.607006-39.337937 39.33896-39.337937l40.631396 0c34.010605-11.18576 150.990876-128.766712 164.257018-164.999938L865.194646 305.565371c0-60.34539-49.096185-109.436458-109.435435-109.436458L266.532891 196.128913c-60.346413 0-109.436458 49.091068-109.436458 109.436458l0 462.9734c0 60.358693 49.090045 109.463064 109.436458 109.463064l208.526267 0c21.73093 0 39.33896 17.613146 39.33896 39.337937s-17.60803 39.337937-39.33896 39.337937L266.532891 956.677709c-103.725386 0-188.114378-84.401272-188.114378-188.138938L78.418512 305.565371c0-103.724363 84.388992-188.113355 188.114378-188.113355l489.225297 0c103.724363 0 188.113355 84.388992 188.113355 188.113355l0 410.521794c0 30.407544-32.17991 78.440513-95.64536 142.763494C784.186657 923.761018 735.423047 956.677709 703.306582 956.677709z" p-id="10771"></path><path d="M147.850861 349.539908l736.218668 0 0 78.676897-736.218668 0 0-78.676897Z" p-id="10772"></path><path d="M253.317914 277.431613c-21.73093 0-39.337937-17.61417-39.337937-39.33896L213.979978 104.056937c0-21.724791 17.60803-39.33896 39.337937-39.33896 21.73093 0 39.33896 17.61417 39.33896 39.33896l0 134.035716C292.656875 259.817444 275.048845 277.431613 253.317914 277.431613z" p-id="10773"></path><path d="M764.72235 277.431613c-21.73093 0-39.337937-17.61417-39.337937-39.33896L725.384413 104.056937c0-21.724791 17.607006-39.33896 39.337937-39.33896 21.729907 0 39.337937 17.61417 39.337937 39.33896l0 134.035716C804.060287 259.817444 786.452257 277.431613 764.72235 277.431613z" p-id="10774"></path><path d="M657.154449 952.23349c-21.73093 0-39.337937-17.613146-39.337937-39.337937L617.816512 804.90605c0-93.998861 76.474742-170.467463 170.467463-170.467463l94.863555 0c21.729907 0 39.337937 17.613146 39.337937 39.337937 0 21.723767-17.60803 39.337937-39.337937 39.337937l-94.863555 0c-50.607608 0-91.789543 41.175795-91.789543 91.790566l0 107.98848C696.494433 934.620343 678.886403 952.23349 657.154449 952.23349z" p-id="10775"></path></svg>