<?xml version="1.0" standalone="no"?><!DOCTYPE svg PUBLIC "-//W3C//DTD SVG 1.1//EN" "http://www.w3.org/Graphics/SVG/1.1/DTD/svg11.dtd"><svg t="1568085293765" class="icon" viewBox="0 0 1024 1024" version="1.1" xmlns="http://www.w3.org/2000/svg" p-id="4628" xmlns:xlink="http://www.w3.org/1999/xlink" width="200" height="200"><defs><style type="text/css"></style></defs><path d="M927.602509 752.216014l-0.23229-0.227174h29.299303c-6.963599-16.205077-17.3389-28.650527-32.123628-38.505989-11.113105-7.407714-25.723871-13.758352-46.514383-20.424169-5.110391-1.638313-10.54824-3.289929-17.350157-5.284353-3.324722-0.975211-15.70161-4.557806-18.429745-5.355985-88.184435-25.798573-130.320091-54.177923-130.320091-130.420375 0-23.708981 6.788613-44.428885 18.857487-65.177441 3.789303-6.513344 7.748475-12.511965 13.272281-20.383236-2.675946 3.813862 9.016351-12.731976 11.486613-16.3729 15.338337-22.601764 21.530362-39.328727 21.530362-66.057485V312.00913c0-42.020022-14.459317-72.682369-42.056862-89.419566-29.714765-11.600199-47.465035-27.124777-53.251831-46.573735-1.813299-6.094812-2.127454-19.222807 6.708796-25.606191 4.488221-3.242857 10.018168-4.727675 16.588816-4.455475l0.721431 0.555655-0.228197-0.403182c87.37807 12.452613 135.514393 79.288834 135.514393 165.902494v71.996754c0 95.995331-65.146743 119.993908-65.146742 167.992085 0 71.996754 112.100124 60.234873 184.111204 108.23305 25.090445 16.72287 43.566238 38.886659 55.428404 66.491367 13.953803 32.473599-1.058099 70.109778-33.531698 84.064604a63.968917 63.968917 0 0 1-9.199522 3.148714l-0.032746 0.109493-0.391926-0.001023-0.179079 0.045026-0.022513-0.046049c-31.827893-0.151449-51.17759-12.536524-58.051137-37.155225-3.069919-10.667967 1.203408-18.968004 12.821003-24.90011l0.722454 0.228198zM375.726314 528.909112c14.781658 24.329105 22.99062 48.275493 22.99062 75.65712 0 87.273692-49.405223 119.287827-159.104671 150.295028-3.53143 0.997724-19.150152 5.370311-23.319102 6.550183-8.773827 2.484587-15.809057 4.539386-22.470781 6.585999-30.438243 9.346879-51.907207 18.339694-68.656682 29.290093-29.495778 19.284205-48.27754 45.904493-57.852616 82.694397h798.615786c-9.473769-36.729529-28.263717-63.308885-57.944713-82.604346-16.529465-10.745738-37.448914-19.615757-66.565045-28.721135-6.931876-2.167363-14.261818-4.338818-23.385617-6.948249-4.428869-1.266853-20.75265-5.875824-24.308638-6.890944-108.392686-30.92943-157.548222-63.22088-157.548223-150.252049 0-27.154453 8.003278-50.982138 22.450315-75.206866 4.670369-7.831362 9.629311-15.159258 16.617469-24.87555-3.558036 4.947685 11.968589-16.485463 15.33322-21.321608 22.096251-31.757285 31.472805-56.463989 31.472806-94.585216v-92.567255c0-94.390787-55.488779-151.992693-154.733107-151.992693-100.638071 0-155.976424 57.491389-154.74948 151.154605l0.005117 0.838088v42.306548c0 28.01403 0 28.01403-0.005117 51.098795-0.497327 37.983079 8.776897 62.33879 31.306007 94.169753 3.366677 4.756327 18.307971 25.061792 15.144931 20.73116 7.015787 9.603729 12.005428 16.8559 16.707521 24.594142zM248.578472 296.009737c-1.616824-123.423007 76.646658-215.989239 218.740909-215.989239 140.467195 0 218.729653 92.313475 218.729654 215.989239v92.567256c0 123.423007-85.874833 154.277736-85.874833 215.989239 0 92.566232 147.767462 77.444836 242.692414 139.15634 43.26027 28.123524 71.603805 68.215638 85.031629 120.276341 8.827039 34.224476-11.760858 69.124334-45.985334 77.951373a63.993476 63.993476 0 0 1-15.983019 2.028193l-798.61681-0.001024c-35.343973 0-63.996546-28.652574-63.996547-63.996546 0-5.437849 0.692778-10.854209 2.062986-16.117073 13.531178-51.995211 41.785685-92.042299 84.765569-120.141264 94.390787-61.711504 244.575298-46.590108 244.575298-139.15634 0-61.711504-87.757716-92.567255-86.141916-215.989239v-92.567256z" p-id="4629"></path></svg>