<?xml version="1.0" standalone="no"?><!DOCTYPE svg PUBLIC "-//W3C//DTD SVG 1.1//EN" "http://www.w3.org/Graphics/SVG/1.1/DTD/svg11.dtd"><svg t="1568628813234" class="icon" viewBox="0 0 1024 1024" version="1.1" xmlns="http://www.w3.org/2000/svg" p-id="10010" xmlns:xlink="http://www.w3.org/1999/xlink" width="200" height="200"><defs><style type="text/css"></style></defs><path d="M698.752424 288.914417a36.571422 36.571422 0 1 1-25.417138 62.902846 36.571422 36.571422 0 0 1 25.417138-62.902846m0-73.142844a109.714266 109.714266 0 0 0 0 219.428532 109.714266 109.714266 0 1 0 0-219.428532z" p-id="10011"></path><path d="M698.752424 73.143027A252.342812 252.342812 0 0 1 877.952392 503.771521a249.782813 249.782813 0 0 1-177.919968 73.142845 253.988526 253.988526 0 0 1-109.714267-24.502853L543.506737 530.285802l-36.571422 36.571422-75.702843 75.519987L379.666767 694.857202l51.748562 51.748562 18.285711 18.285711-49.919991 50.102848-18.285711-18.285711L329.381061 744.411478l-51.748562 51.748563L123.666812 950.857156 73.381107 900.571451l383.999931-383.999932 36.571422-36.571422-22.308567-46.81142A252.159955 252.159955 0 0 1 698.752424 73.143027m0-73.142844a325.302799 325.302799 0 0 0-293.485662 465.554202l-383.999931 383.999932a72.045701 72.045701 0 0 0 0 102.217124L73.381107 1002.788575a72.228559 72.228559 0 0 0 102.217125 0L329.381061 847.908603l19.199997 19.199996a72.228559 72.228559 0 0 0 102.217124 0l51.199991-51.19999a73.142844 73.142844 0 0 0 0-102.217125L483.163891 694.857202l75.519986-75.519987a329.142798 329.142798 0 0 0 140.617118 31.63428A325.302799 325.302799 0 0 0 698.752424 0.000183z" p-id="10012"></path></svg>