<?xml version="1.0" standalone="no"?><!DOCTYPE svg PUBLIC "-//W3C//DTD SVG 1.1//EN" "http://www.w3.org/Graphics/SVG/1.1/DTD/svg11.dtd"><svg t="1581133150978" class="icon" viewBox="0 0 1024 1024" version="1.1" xmlns="http://www.w3.org/2000/svg" p-id="5433" xmlns:xlink="http://www.w3.org/1999/xlink" width="200" height="200"><defs><style type="text/css"></style></defs><path d="M842.458317 264.333294c13.075807-11.887748 33.313733-10.923794 45.201482 2.153036 11.887748 13.075807 10.923794 33.313733-2.153037 45.201482L576.573691 592.536244c-36.614919 33.286104-92.532463 33.286104-129.147382 0L138.492214 311.687812c-13.07683-11.887748-14.039761-32.125675-2.152013-45.201482 11.887748-13.07683 32.124651-14.040784 45.201482-2.153036l308.934094 280.849456c12.204973 11.095709 30.843472 11.095709 43.048446 0L842.458317 264.333294z" p-id="5434"></path><path d="M99.555413 194.734146c-17.522072 0-31.726585 14.204513-31.726585 31.726586v571.077513c0 17.522072 14.204513 31.726585 31.726585 31.726585h824.889174c17.522072 0 31.726585-14.204513 31.726585-31.726585V226.460732c0-17.522072-14.204513-31.726585-31.726585-31.726586H99.555413z m0-63.452147h824.889174c52.566216 0 95.179756 42.61354 95.179756 95.179756v571.077513c0 52.566216-42.61354 95.179756-95.179756 95.179757H99.555413c-52.566216 0-95.179756-42.61354-95.179756-95.179757V226.460732c0-52.565193 42.61354-95.178733 95.179756-95.178733z" p-id="5435"></path></svg>