<?xml version="1.0" standalone="no"?><!DOCTYPE svg PUBLIC "-//W3C//DTD SVG 1.1//EN" "http://www.w3.org/Graphics/SVG/1.1/DTD/svg11.dtd"><svg t="1568628477031" class="icon" viewBox="0 0 1024 1024" version="1.1" xmlns="http://www.w3.org/2000/svg" p-id="8041" xmlns:xlink="http://www.w3.org/1999/xlink" width="200" height="200"><defs><style type="text/css"></style></defs><path d="M751.986793 224.014007v575.971986c0 17.672498-14.326287 31.998785-31.998785 31.998785s-31.998785-14.326287-31.998785-31.998785V224.014007c0-17.672498 14.326287-31.998785 31.998785-31.998785s31.998785 14.326287 31.998785 31.998785zM208.013591 703.990662v159.991878c0 17.672498 14.326287 31.998785 31.998785 31.998785h607.970771c17.672498 0 31.998785-14.326287 31.998785-31.998785V160.016437c0-17.672498-14.326287-31.998785-31.998785-31.998785H240.011352c-17.672498 0-31.998785 14.326287-31.998785 31.998785v159.991877h63.996547c17.672498 0 31.998785 14.326287 31.998785 31.998785s-14.326287 31.998785-31.998785 31.998785h-63.996547v255.988232h63.996547c17.672498 0 31.998785 14.326287 31.998785 31.998785s-14.326287 31.998785-31.998785 31.998785h-63.995523z m-63.99757-63.996546V384.005884h-31.998785c-17.672498 0-31.998785-14.326287-31.998785-31.998785s14.326287-31.998785 31.998785-31.998785h31.998785V160.016437c0-53.016471 42.97886-95.995331 95.995331-95.995331h607.970772c53.016471 0 95.995331 42.97886 95.995331 95.995331v703.966103c0 53.016471-42.97886 95.995331-95.995331 95.995331H240.011352c-53.016471 0-95.995331-42.97886-95.995331-95.995331V703.990662h-31.998785c-17.672498 0-31.998785-14.326287-31.998785-31.998784s14.326287-31.998785 31.998785-31.998785h31.998785z" p-id="8042"></path></svg>