<?xml version="1.0" standalone="no"?><!DOCTYPE svg PUBLIC "-//W3C//DTD SVG 1.1//EN" "http://www.w3.org/Graphics/SVG/1.1/DTD/svg11.dtd"><svg t="1568627936762" class="icon" viewBox="0 0 1024 1024" version="1.1" xmlns="http://www.w3.org/2000/svg" p-id="2976" xmlns:xlink="http://www.w3.org/1999/xlink" width="200" height="200"><defs><style type="text/css"></style></defs><path d="M799.985993 863.98254h127.994116V735.989447H799.985993v127.993093z m-351.983563 0h127.994116V735.989447H448.00243v127.993093z m-21.331841-191.990662h170.658822c23.562649 0 42.664705 19.101033 42.664705 42.664705v170.658821c0 23.562649-19.101033 42.664705-42.664705 42.664705H426.670589c-23.562649 0-42.664705-19.102057-42.664705-42.664705V714.656583c0-23.562649 19.102057-42.664705 42.664705-42.664705z m-330.650698 191.990662h127.994116V735.989447H96.019891v127.993093z m351.982539-575.971987h127.994116V160.016437H448.00243v127.994116z m31.998785 191.990662V352.007099h-53.330626c-23.562649 0-42.664705-19.101033-42.664705-42.664705V138.684596c0-23.562649 19.101033-42.664705 42.664705-42.664705h170.658822c23.562649 0 42.664705 19.101033 42.664705 42.664705v170.658821c0 23.562649-19.101033 42.664705-42.664705 42.664705h-53.330626v127.994116h319.984778c17.672498 0 31.998785 14.326287 31.998785 31.998785v159.991878h53.330626c23.562649 0 42.664705 19.101033 42.664705 42.664705V885.316427c0 23.562649-19.101033 42.664705-42.664705 42.664706H778.653129c-23.562649 0-42.664705-19.102057-42.664705-42.664706V714.656583c0-23.562649 19.101033-42.664705 42.664705-42.664705h53.330626V543.998785H192.015222v127.994116h53.330626c23.562649 0 42.664705 19.101033 42.664705 42.664705V885.316427c0 23.562649-19.102057 42.664705-42.664705 42.664706H74.687026c-23.562649 0-42.664705-19.102057-42.664705-42.664706V714.656583c0-23.562649 19.102057-42.664705 42.664705-42.664705h53.330626V512c0-17.672498 14.326287-31.998785 31.998785-31.998785h319.984778z" p-id="2977"></path></svg>