<?xml version="1.0" standalone="no"?><!DOCTYPE svg PUBLIC "-//W3C//DTD SVG 1.1//EN" "http://www.w3.org/Graphics/SVG/1.1/DTD/svg11.dtd"><svg t="1568083407061" class="icon" viewBox="0 0 1024 1024" version="1.1" xmlns="http://www.w3.org/2000/svg" p-id="4392" xmlns:xlink="http://www.w3.org/1999/xlink" width="200" height="200"><defs><style type="text/css"></style></defs><path d="M256.011768 671.991878h159.991878c17.672498 0 31.998785 14.326287 31.998784 31.998784s-14.326287 31.998785-31.998784 31.998785H256.011768c-17.672498 0-31.998785-14.326287-31.998785-31.998785 0.001023-17.672498 14.32731-31.998785 31.998785-31.998784zM950.545034 118.620631L679.029154 390.136511c-12.496615 12.496615-32.756031 12.496615-45.252646 0-12.495592-12.495592-12.495592-32.756031 0-45.252646L905.292388 73.367985c12.496615-12.496615 32.756031-12.496615 45.252646 0 12.496615 12.496615 12.496615 32.757055 0 45.252646zM256.011768 479.975633h415.98011c17.672498 0 31.998785 14.326287 31.998784 31.998784s-14.326287 31.998785-31.998784 31.998785H256.011768c-17.672498 0-31.998785-14.326287-31.998785-31.998785 0.001023-17.671475 14.32731-31.998785 31.998785-31.998784z m0-191.990663h223.989447c17.672498 0 31.998785 14.326287 31.998785 31.998785s-14.326287 31.998785-31.998785 31.998785H256.011768c-17.672498 0-31.998785-14.326287-31.998785-31.998785 0.001023-17.672498 14.32731-31.998785 31.998785-31.998785z m639.969557 160.01746c0-17.672498 14.326287-31.998785 31.998784-31.998784s31.998785 14.326287 31.998785 31.998784v415.98011c0 53.016471-42.97886 95.995331-95.995331 95.995331H160.016437c-53.016471 0-95.995331-42.97886-95.995331-95.995331V160.016437c0-53.016471 42.97886-95.995331 95.995331-95.995331h415.980109c17.672498 0 31.998785 14.326287 31.998785 31.998785s-14.326287 31.998785-31.998785 31.998784H160.016437c-17.672498 0-31.998785 14.326287-31.998785 31.998785v703.966103c0 17.672498 14.326287 31.998785 31.998785 31.998785h703.966103c17.672498 0 31.998785-14.326287 31.998785-31.998785V448.00243z" p-id="4393"></path></svg>