<?xml version="1.0" standalone="no"?><!DOCTYPE svg PUBLIC "-//W3C//DTD SVG 1.1//EN" "http://www.w3.org/Graphics/SVG/1.1/DTD/svg11.dtd"><svg t="1571106444955" class="icon" viewBox="0 0 1025 1024" version="1.1" xmlns="http://www.w3.org/2000/svg" p-id="641" xmlns:xlink="http://www.w3.org/1999/xlink" width="200.1953125" height="200"><defs><style type="text/css"></style></defs><path d="M855.385305 230.835768C838.153157 248.067916 810.219866 248.067916 792.987718 230.835768 775.75557 213.60362 775.75557 185.67033 792.987718 168.438181L949.003749 12.400086C966.235897-4.832062 994.169188-4.832062 1011.401336 12.400086 1028.633484 29.654299 1028.633484 57.587589 1011.401336 74.819737L855.385305 230.835768ZM688.668132 313.091144C670.090067 313.091144 654.270028 301.573626 647.761086 285.334368 608.001379 261.394699 561.953372 246.898513 512.154449 246.898513 454.986081 246.898513 402.186425 265.189744 358.896445 296.013445L295.925189 233.020125C355.697134 186.574962 430.583064 158.641672 512.154449 158.641672 593.725835 158.641672 668.611765 186.574962 728.38371 233.020125L721.587934 239.837966C728.471967 247.626632 732.796552 257.754105 732.796552 268.962724 732.796552 293.321612 713.049084 313.091144 688.668132 313.091144ZM313.576557 335.155354C313.576557 353.73342 302.059039 369.553458 285.81978 376.0624 261.880112 415.822107 247.383926 461.870114 247.383926 511.669037 247.383926 568.837406 265.69722 621.637061 296.498858 664.904977L233.505538 727.898298C187.060375 668.126352 159.127085 593.240422 159.127085 511.669037 159.127085 430.097651 187.060375 355.211722 233.505538 295.439776L240.323379 302.235553C248.112045 295.351519 258.239517 291.026934 269.448136 291.026934 293.829089 291.026934 313.576557 310.774402 313.576557 335.155354ZM168.923594 230.835768 12.907563 74.819737C-4.324585 57.587589-4.324585 29.654299 12.907563 12.400086 30.139711-4.832062 58.073002-4.832062 75.30515 12.400086L231.321181 168.438181C248.553329 185.67033 248.553329 213.60362 231.321181 230.835768 214.089033 248.067916 186.155742 248.067916 168.923594 230.835768ZM168.923594 792.502306C186.155742 775.270157 214.089033 775.270157 231.321181 792.502306 248.553329 809.734454 248.553329 837.667744 231.321181 854.899892L75.30515 1010.915923C58.073002 1028.148072 30.139711 1028.148072 12.907563 1010.915923-4.324585 993.683775-4.324585 965.750485 12.907563 948.518337L168.923594 792.502306ZM335.640767 710.24693C354.218832 710.24693 370.038871 721.742383 376.547813 738.003706 416.30752 761.943374 462.355527 776.43956 512.154449 776.43956 569.322818 776.43956 622.122474 758.126266 665.412454 727.324628L728.38371 790.295885C668.611765 836.763111 593.725835 864.696402 512.154449 864.696402 430.583064 864.696402 355.697134 836.763111 295.925189 790.295885L302.720965 783.500108C295.836932 775.711441 291.512346 765.583969 291.512346 754.37535 291.512346 729.994398 311.259815 710.24693 335.640767 710.24693ZM710.732342 688.182719C710.732342 669.604654 722.227796 653.784615 738.489119 647.275673 762.428787 607.515966 776.924973 561.467959 776.924973 511.669037 776.924973 454.500668 758.611679 401.701013 727.810041 358.411032L790.781297 295.439776C837.248524 355.211722 865.181814 430.097651 865.181814 511.669037 865.181814 593.240422 837.248524 668.126352 790.803361 727.898298L783.98552 721.102521C776.196854 727.986555 766.069382 732.31114 754.860763 732.31114 730.47981 732.31114 710.732342 712.563672 710.732342 688.182719ZM855.385305 792.502306 1011.401336 948.518337C1028.633484 965.750485 1028.633484 993.683775 1011.401336 1010.915923 994.169188 1028.148072 966.235897 1028.148072 949.003749 1010.915923L792.987718 854.899892C775.75557 837.667744 775.75557 809.734454 792.987718 792.502306 810.219866 775.270157 838.153157 775.270157 855.385305 792.502306Z" p-id="642"></path></svg>