<?xml version="1.0" standalone="no"?><!DOCTYPE svg PUBLIC "-//W3C//DTD SVG 1.1//EN" "http://www.w3.org/Graphics/SVG/1.1/DTD/svg11.dtd"><svg t="1571814876698" class="icon" viewBox="0 0 1024 1024" version="1.1" xmlns="http://www.w3.org/2000/svg" p-id="597" xmlns:xlink="http://www.w3.org/1999/xlink" width="200" height="200"><defs><style type="text/css"></style></defs><path d="M700.477 560.68l178.081 178.027c18.668 18.668 28.951 43.505 28.951 69.924s-10.283 51.257-29.003 69.925c-18.615 18.667-43.452 28.951-69.872 28.951-26.419 0-51.204-10.283-69.925-28.951l-199.597-199.649-168.694 184.356c-28.74 28.793-65.97 44.243-105.573 44.243s-76.885-15.451-104.887-43.452c-28.054-28.001-43.452-65.23-43.452-104.834 0-39.655 15.398-76.885 43.452-104.887l239.885-219.529-139.849-139.849c-9.808 4.693-20.567 7.434-31.746 7.434-19.828 0-38.443-7.699-52.47-21.726l-52.048-52.048c-9.651-9.651-9.651-25.312 0-34.962l69.925-69.924c9.651-9.651 25.312-9.651 34.962 0l52.048 52.048c22.728 22.781 27.316 56.636 14.239 84.162l141.431 141.431 29.531-26.999c-1.951-11.918-3.322-23.783-3.322-35.384 0-122.659 99.824-222.482 222.482-222.482 20.355 0 40.921 2.901 61.118 8.648 8.437 2.425 14.924 9.123 17.137 17.614 2.214 8.437-0.263 17.455-6.433 23.677l-42.714 42.661c-27.739 27.791-27.739 72.982 0 100.774 26.947 26.947 73.879 26.947 100.774 0l42.661-42.714c6.222-6.17 15.293-8.648 23.677-6.433 8.543 2.214 15.187 8.753 17.613 17.137 5.748 20.198 8.648 40.762 8.648 61.118 0 117.437-91.545 213.676-207.031 221.691zM245.703 210.74l-34.593-34.54-34.911 34.91 34.54 34.593c9.387 9.334 25.576 9.334 34.962 0 9.651-9.651 9.651-25.312 0-34.962zM773.67 843.595c18.668 18.668 51.257 18.668 69.925 0 9.334-9.334 14.45-21.726 14.45-34.962 0-13.183-5.115-25.628-14.45-34.962l-192.002-192.003-69.924 69.924 192.003 192.003zM858.043 336.668l-8.174 8.174c-22.781 22.781-53.103 35.384-85.324 35.384-32.273 0-62.542-12.603-85.375-35.384-46.986-47.038-46.986-123.607 0-170.698l8.226-8.174c-95.975-0.474-175.391 76.833-175.391 173.017 0 12.603 1.529 25.734 4.588 38.97 0.263 1.055 0 2.109 0.105 3.164 0.158 1.687 0.317 3.375 0.106 5.062-0.158 1.582-0.633 3.058-1.107 4.536-0.422 1.529-0.896 2.953-1.635 4.377-0.844 1.529-1.898 2.795-3.058 4.114-0.685 0.791-1.002 1.793-1.846 2.531l-315.029 288.294c-17.929 17.929-28.212 42.767-28.212 69.186 0 26.367 10.283 51.204 29.003 69.872 37.387 37.387 102.461 37.335 139.796 0l287.608-314.238c0.739-0.844 1.793-1.266 2.637-1.951 1.266-1.055 2.478-2.109 3.955-2.901 1.477-0.791 2.953-1.266 4.536-1.74 1.477-0.422 2.847-0.844 4.377-1.055 1.74-0.158 3.375 0 5.115 0.158 1.055 0.106 2.109-0.158 3.164 0.053 13.078 3.058 26.156 4.588 38.917 4.588 95.394 0 173.017-77.624 173.017-173.018 0-0.791 0-1.582 0-2.32zM264.844 808.632c-27.316 0-49.464-22.095-49.464-49.464 0-27.262 22.148-49.411 49.464-49.411 27.317 0 49.411 22.148 49.411 49.411 0 27.369-22.095 49.464-49.411 49.464z" p-id="598"></path></svg>