<?xml version="1.0" standalone="no"?><!DOCTYPE svg PUBLIC "-//W3C//DTD SVG 1.1//EN" "http://www.w3.org/Graphics/SVG/1.1/DTD/svg11.dtd"><svg t="1572490269620" class="icon" viewBox="0 0 1024 1024" version="1.1" xmlns="http://www.w3.org/2000/svg" p-id="2034" xmlns:xlink="http://www.w3.org/1999/xlink" width="200" height="200"><defs><style type="text/css"></style></defs><path d="M655.129326 613.697193C726.316645 486.574934 751.741711 364.540554 751.741711 364.540554l-12.710486 0 0 0L629.7104 364.540554l-114.405633 0L515.304767 278.103926l279.657304 0 0-38.139645L515.304767 239.96428 515.304767 105.219413 388.182508 105.219413l0 134.744867-254.240425 0 0 38.139645 254.240425 0 0 88.98159L169.535743 367.085516l0 38.134529 439.833377 0c0 7.627724 0 7.627724-7.628748 12.707416 0 45.769416-33.045627 109.327988-58.471716 160.178119-325.425697-127.124306-419.497213-50.847062-444.920232-38.139645-216.10078 152.546302-12.709463 343.225085 20.342304 338.142324 228.814336 50.843992 376.268666-45.769416 477.966882-165.257811 7.627724 7.628748 12.71151 7.628748 20.338211 7.628748 71.185272 38.134529 406.782633 198.301392 406.782633 198.301392l0-190.672644C972.930369 723.016994 787.335371 659.4574 655.129326 613.697193L655.129326 613.697193zM489.878678 672.166863C329.709769 875.561249 139.028938 812.002678 108.523157 799.291169c-76.273151-20.342304-101.698217-160.170956-7.627724-203.39234 160.168909-50.847062 300.001655 7.624654 401.693732 58.474786C494.960417 664.540162 489.878678 672.166863 489.878678 672.166863L489.878678 672.166863z" p-id="2035"></path></svg>