<?xml version="1.0" standalone="no"?><!DOCTYPE svg PUBLIC "-//W3C//DTD SVG 1.1//EN" "http://www.w3.org/Graphics/SVG/1.1/DTD/svg11.dtd"><svg t="1568083220403" class="icon" viewBox="0 0 1024 1024" version="1.1" xmlns="http://www.w3.org/2000/svg" p-id="6705" xmlns:xlink="http://www.w3.org/1999/xlink" width="200" height="200"><defs><style type="text/css"></style></defs><path d="M396.281861 607.867002l115.717627 88.388161 409.173486-328.441709c-0.328482-0.091074-0.657987-0.157589-0.987491-0.208755 0.329505-0.088004 0.660033-0.172939 0.987491-0.26606l-293.303386-192.148444-38.93684-29.754704-76.93326-58.786953-76.758275 58.63448-38.959353 29.776194-293.500884 192.279427c0.344855 0.097214 0.692779 0.186242 1.03968 0.27834-0.346901 0.053212-0.693802 0.121774-1.03968 0.218988L396.281861 607.867002zM67.059369 404.722099c-1.662874 4.853546-2.798745 9.925057-2.798745 15.28207l0 466.977041c0 5.640469 1.246388 10.975993 3.082201 16.047504l291.97104-263.285692L67.059369 404.722099zM511.999488 756.420511l-113.750831-86.924832-294.81174 265.759025c4.634558 1.223875 9.401123 2.09778 14.451145 2.09778l788.20034 0c5.071511 0 9.881055-0.873904 14.516636-2.141782l-294.70327-265.846006L511.999488 756.420511zM956.940631 404.722099l-292.124536 234.910406 291.861546 263.395185c1.835813-5.071511 3.060712-10.407034 3.060712-16.047504L959.738353 420.004169C959.738353 414.647156 958.602482 409.575645 956.940631 404.722099zM396.281861 607.867002l115.717627 88.388161 409.173486-328.441709c-0.328482-0.091074-0.657987-0.157589-0.987491-0.208755 0.329505-0.088004 0.660033-0.172939 0.987491-0.26606l-293.303386-192.148444-38.93684-29.754704-76.93326-58.786953-76.758275 58.63448-38.959353 29.776194-293.500884 192.279427c0.344855 0.097214 0.692779 0.186242 1.03968 0.27834-0.346901 0.053212-0.693802 0.121774-1.03968 0.218988L396.281861 607.867002zM67.059369 404.722099c-1.662874 4.853546-2.798745 9.925057-2.798745 15.28207l0 466.977041c0 5.640469 1.246388 10.975993 3.082201 16.047504l291.97104-263.285692L67.059369 404.722099zM511.999488 756.420511l-113.750831-86.924832-294.81174 265.759025c4.634558 1.223875 9.401123 2.09778 14.451145 2.09778l788.20034 0c5.071511 0 9.881055-0.873904 14.516636-2.141782l-294.70327-265.846006L511.999488 756.420511zM956.940631 404.722099l-292.124536 234.910406 291.861546 263.395185c1.835813-5.071511 3.060712-10.407034 3.060712-16.047504L959.738353 420.004169C959.738353 414.647156 958.602482 409.575645 956.940631 404.722099z" p-id="6706"></path></svg>