<?xml version="1.0" standalone="no"?><!DOCTYPE svg PUBLIC "-//W3C//DTD SVG 1.1//EN" "http://www.w3.org/Graphics/SVG/1.1/DTD/svg11.dtd"><svg t="1569551134652" class="icon" viewBox="0 0 1024 1024" version="1.1" xmlns="http://www.w3.org/2000/svg" p-id="4578" xmlns:xlink="http://www.w3.org/1999/xlink" width="200" height="200"><defs><style type="text/css"></style></defs><path d="M895.8 592.1a32.2 32.1 0 1 0 64.4 0 32.2 32.1 0 1 0-64.4 0Z" fill="#4D4D4D" p-id="4579"></path><path d="M928 687.9c-17.8 0-32.2 14.4-32.2 32.1v80.7c0 35.3-28.7 64-64 64H192.5c-35.3 0-64-28.7-64-64V225c0-35.3 28.7-64 64-64H415l82.7 143.3c6.6 11.4 19.2 17.2 31.5 15.8h302.5c35.3 0 64 28.7 64 64v80c0 17.7 14.4 32.1 32.2 32.1s32.2-14.4 32.2-32.1c0-0.8 0-1.6-0.1-2.4v-77.5c0-70.7-57.3-128-128-128H543.9l-82.5-142.9c-7.4-12.9-18-16.2-27.3-16l-0.1-0.1H192.1c-70.7 0-128 57.3-128 128v574.1c0 70.7 57.3 128 128 128h640c70.7 0 128-57.3 128-128v-76.9c0.1-0.8 0.1-1.6 0.1-2.4 0-17.7-14.4-32.1-32.2-32.1z" fill="#4D4D4D" p-id="4580"></path><path d="M576.7 766.3c12.5 12.5 32.9 12.5 45.4 0L757.5 631c0.3-0.3 0.6-0.5 0.9-0.8h0.1l0.7-0.7c12.3-12.3 12.3-32.4 0-44.7l-136-136c-12.4-12.4-32.5-12.4-44.8-0.1l-0.7 0.7c-12.3 12.3-12.3 32.4 0 44.7l82 82h-372c-17.3 0-31.5 14.2-31.5 31.5s14.2 31.5 31.5 31.5h370.8l-81.7 81.8c-12.6 12.5-12.6 32.9-0.1 45.4z" fill="#4D4D4D" p-id="4581"></path></svg>