<?xml version="1.0" standalone="no"?><!DOCTYPE svg PUBLIC "-//W3C//DTD SVG 1.1//EN" "http://www.w3.org/Graphics/SVG/1.1/DTD/svg11.dtd"><svg t="1567496126382" class="icon" viewBox="0 0 1024 1024" version="1.1" xmlns="http://www.w3.org/2000/svg" p-id="1982" xmlns:xlink="http://www.w3.org/1999/xlink" width="200" height="200"><defs><style type="text/css"></style></defs><path d="M942.656 96.448 561.984 96.64 561.728 46.72c0-25.664-20.224-46.464-45.184-46.464-0.768 0-1.408 0.384-2.176 0.448-0.768 0-1.408-0.448-2.176-0.448-24.96 0-45.248 20.8-45.248 46.464L467.2 96.64 81.344 96.832c-25.024 0-45.248 20.864-45.248 46.464 0 25.664 20.224 46.4 45.248 46.4l48.768 0 0.32 692.16L130.56 881.856l0 49.152c0 51.008 40.448 92.288 90.432 92.288L266.24 1023.296l0 0.384 497.536-0.32 0-0.064 45.248 0c49.664 0 89.92-40.896 90.432-91.52L899.2 283.264c0-25.472-20.224-46.208-45.248-46.208-25.088 0-45.248 20.672-45.248 46.208l0.32 583.36c-4.8 53.696-26.56 64.448-89.28 64.448l1.152 0-421.696 0.256 11.008-0.256c-62.528 0-84.352-10.752-89.28-63.936L220.608 189.632l722.048-0.32c25.024 0 45.248-20.8 45.248-46.464S967.616 96.448 942.656 96.448z" p-id="1983"></path><path d="M401.28 232.512c-24.96 0-45.248 20.8-45.248 46.4l0.448 559.104c0 25.6 20.224 46.4 45.248 46.4 24.96 0 45.248-20.736 45.248-46.4L446.528 278.912C446.528 253.312 426.24 232.512 401.28 232.512z" p-id="1984"></path><path d="M627.456 232.512c-24.96 0-45.248 20.8-45.248 46.4l0.448 559.104c0 25.6 20.224 46.4 45.248 46.4s45.184-20.736 45.184-46.4l-0.384-559.104C672.704 253.312 652.416 232.512 627.456 232.512z" p-id="1985"></path></svg>