<?xml version="1.0" standalone="no"?><!DOCTYPE svg PUBLIC "-//W3C//DTD SVG 1.1//EN" "http://www.w3.org/Graphics/SVG/1.1/DTD/svg11.dtd"><svg t="1566451460457" class="icon" viewBox="0 0 1024 1024" version="1.1" xmlns="http://www.w3.org/2000/svg" p-id="628" xmlns:xlink="http://www.w3.org/1999/xlink" width="200" height="200"><defs><style type="text/css"></style></defs><path d="M735.14 513.818a520.414 520.414 0 0 0-60.186-24.162C741.12 439.992 784 360.91 784 272 784 122.02 661.982 0 512 0S240 122.02 240 272c0 89.008 42.976 168.168 109.266 217.822-60.736 19.996-117.726 51.11-167.606 92.138-91.464 75.234-155.058 180.172-179.064 295.486-7.524 36.132 1.49 73.244 24.726 101.816C50.444 1007.694 84.73 1024 121.386 1024H614c22.092 0 40-17.908 40-40s-17.908-40-40-40H121.386c-17.076 0-27.378-9.532-31.998-15.212-7.978-9.81-11.066-22.58-8.472-35.038 41.51-199.39 217.382-345.042 420.48-349.954a274.458 274.458 0 0 0 21.312-0.004c62.24 1.46 122.1 15.664 178.088 42.28 19.954 9.48 43.814 0.998 53.298-18.956 9.484-19.952 1-43.814-18.954-53.298z m-213.384-50.064a520.32 520.32 0 0 0-19.436 0.004C400.93 458.7 320 374.624 320 272c0-105.87 86.13-192 192-192s192 86.13 192 192c0 102.598-80.89 186.658-182.244 191.754z" p-id="629"></path><path d="M984 794h-110v-110c0-22.092-17.908-40-40-40s-40 17.908-40 40v110h-110c-22.092 0-40 17.908-40 40s17.908 40 40 40h110v110c0 22.092 17.908 40 40 40s40-17.908 40-40v-110h110c22.092 0 40-17.908 40-40s-17.908-40-40-40z" p-id="630"></path></svg>