<?xml version="1.0" standalone="no"?><!DOCTYPE svg PUBLIC "-//W3C//DTD SVG 1.1//EN" "http://www.w3.org/Graphics/SVG/1.1/DTD/svg11.dtd"><svg t="1588648582959" class="icon" viewBox="0 0 1024 1024" version="1.1" xmlns="http://www.w3.org/2000/svg" p-id="5011" xmlns:xlink="http://www.w3.org/1999/xlink" width="200" height="200"><defs><style type="text/css"></style></defs><path d="M832 938.666667a42.666667 42.666667 0 0 1-42.666667-42.666667v-128h-128a42.666667 42.666667 0 0 1 0-85.333333h170.666667a42.666667 42.666667 0 0 1 42.666667 42.666666v170.666667a42.666667 42.666667 0 0 1-42.666667 42.666667z" p-id="5012"></path><path d="M512 938.666667A426.666667 426.666667 0 0 1 85.333333 512a42.666667 42.666667 0 0 1 85.333334 0 341.333333 341.333333 0 0 0 625.066666 189.653333 42.666667 42.666667 0 1 1 70.826667 47.36A425.173333 425.173333 0 0 1 512 938.666667z" p-id="5013"></path><path d="M362.666667 341.333333H192a42.666667 42.666667 0 0 1-42.666667-42.666666V128a42.666667 42.666667 0 0 1 85.333334 0v128h128a42.666667 42.666667 0 0 1 0 85.333333z" p-id="5014"></path><path d="M896 554.666667a42.666667 42.666667 0 0 1-42.666667-42.666667 341.333333 341.333333 0 0 0-625.92-189.653333 42.666667 42.666667 0 0 1-70.826666-47.573334A426.666667 426.666667 0 0 1 938.666667 512a42.666667 42.666667 0 0 1-42.666667 42.666667z" p-id="5015"></path></svg>