<?xml version="1.0" standalone="no"?><!DOCTYPE svg PUBLIC "-//W3C//DTD SVG 1.1//EN" "http://www.w3.org/Graphics/SVG/1.1/DTD/svg11.dtd"><svg t="1573022978824" class="icon" viewBox="0 0 1024 1024" version="1.1" xmlns="http://www.w3.org/2000/svg" p-id="1115" xmlns:xlink="http://www.w3.org/1999/xlink" width="200" height="200"><defs><style type="text/css"></style></defs><path d="M895 511.5C895 299.7 723.3 128 511.5 128S128 299.7 128 511.5 299.7 895 511.5 895c87 0 166.6-29.6 230.9-78.3 2.6-3 4.4-6.8 4.4-11.1 0-9.4-7.6-17-17-17-4.9 0-9.2 1.9-12.3 5.2h-0.2c-57.6 42.4-128.4 67.7-205.4 67.7-191.8 0-347.3-155.5-347.3-347.3s155.5-347.3 347.3-347.3 347.3 155.5 347.3 347.3c0 58.6-13.7 113.7-39.4 162.1v0.3c-0.5 1.6-1 3.2-1 4.9 0 9.4 7.6 17 17 17 7.3 0 13.4-4.7 15.8-11.2v0.1C878.9 634.7 895 575 895 511.5z m-233.4 117" p-id="1116"></path><path d="M511.3 639.8c-4.2 0-7.8-1.4-10.9-4.1-3.1-2.7-4.8-7.7-5.1-15-0.9-20.4 3.5-40.7 13-60.9 9.5-20.2 25-40.5 46.3-60.9 10.6-10.4 19.6-19.3 26.9-26.5 7.3-7.3 13.2-14.5 17.8-21.8 4.5-7.3 7.7-15.1 9.4-23.5 1.7-8.4 2.3-18.9 1.8-31.6-1.1-27.2-10.6-48.7-28.4-64.3-17.8-15.7-41.4-23.5-71-23.5-28.2 0-51.1 8.1-68.6 24.2-17.6 16.1-26.7 37.1-27.5 62.9 0 11.3-4.8 17-14.5 17-10.2 0-15.4-4.8-15.8-14.3-0.7-17.2 2.2-33.1 8.7-47.6 6.5-14.5 15.6-27 27.2-37.4 11.6-10.4 25.3-18.5 41.3-24.2 15.9-5.7 32.7-8.5 50.2-8.5 37.9 0 68.3 10.3 91.4 31 23 20.6 35.4 50.3 37 88.8 0.8 18.2-3.1 35.2-11.7 51-8.6 15.9-22.4 33.3-41.4 52.4-12.9 12.7-23.5 23.7-31.9 33-8.4 9.3-14.8 18.3-19.3 26.9-4.5 8.6-7.5 17.4-8.9 26.2-1.5 8.8-2 19.4-1.4 31.6 0.3 12.7-4.5 19.1-14.6 19.1z m0.4 124.2c8.1 0 15.2-3.1 21.2-9.2 6.1-6.1 9.1-13.1 9.1-20.8 0-8.2-3-15.2-9.1-21.1-6.1-5.9-13.1-8.9-21.2-8.9-7.6 0-14.5 3-20.6 8.9-6.1 5.9-9.1 13-9.1 21.1 0 7.7 3 14.7 9.1 20.8s12.9 9.2 20.6 9.2z" p-id="1117"></path></svg>