<?xml version="1.0" standalone="no"?><!DOCTYPE svg PUBLIC "-//W3C//DTD SVG 1.1//EN" "http://www.w3.org/Graphics/SVG/1.1/DTD/svg11.dtd"><svg t="1585789347002" class="icon" viewBox="0 0 1024 1024" version="1.1" xmlns="http://www.w3.org/2000/svg" p-id="2153" xmlns:xlink="http://www.w3.org/1999/xlink" width="200" height="200"><defs><style type="text/css"></style></defs><path d="M512 342.016l64 0 0 180.010667 150.016 89.984-32 52.010667-182.016-109.994667 0-212.010667zM553.984 128q157.994667 0 271.018667 112t112.981333 272-112.981333 272-271.018667 112-269.994667-112l59.989333-61.994667q88.021333 88.021333 210.005333 88.021333 123.989333 0 212.010667-86.997333t88.021333-210.986667-88.021333-210.986667-212.010667-86.997333-210.986667 86.997333-86.997333 210.986667l128 0-171.989333 171.989333-4.010667-6.016-166.016-166.016 128 0q0-160 112.981333-272t271.018667-112z" p-id="2154"></path></svg>