<?xml version="1.0" standalone="no"?><!DOCTYPE svg PUBLIC "-//W3C//DTD SVG 1.1//EN" "http://www.w3.org/Graphics/SVG/1.1/DTD/svg11.dtd"><svg t="1568080032208" class="icon" viewBox="0 0 1024 1024" version="1.1" xmlns="http://www.w3.org/2000/svg" p-id="3566" xmlns:xlink="http://www.w3.org/1999/xlink" width="200" height="200"><defs><style type="text/css"></style></defs><path d="M879.509165 449.979458c0.312108-5.952572 0.472767-11.945053 0.472767-17.975397 0-185.557136-150.426011-335.984171-335.98417-335.98417-163.039283 0-298.954813 116.130927-329.542459 270.182512C99.250468 403.864164 16.023952 512.206708 16.023952 639.994116c0 159.050436 128.935558 287.985993 287.985993 287.985993h447.978895c141.379984 0 255.987209-114.607224 255.987208-255.987208 0-94.945419-51.693336-177.819918-128.466883-222.013443zM718.371184 586.073042c-12.828167 102.561887-100.333126 181.91519-206.371184 181.91519S318.456982 688.635953 305.628816 586.073042a31.973202 31.973202 0 0 1-1.618871-10.075472c0-17.672498 14.326287-31.998785 31.998785-31.998785s31.998785 14.326287 31.998785 31.998785h0.87902c7.959276 71.995731 68.997444 127.994116 143.114488 127.994116s135.155213-55.998385 143.114489-127.994116h0.87902c0-17.672498 14.326287-31.998785 31.998785-31.998785s31.998785 14.326287 31.998784 31.998785a32.03767 32.03767 0 0 1-1.620917 10.075472z" p-id="3567"></path></svg>