<?xml version="1.0" standalone="no"?><!DOCTYPE svg PUBLIC "-//W3C//DTD SVG 1.1//EN" "http://www.w3.org/Graphics/SVG/1.1/DTD/svg11.dtd"><svg t="1567589158499" class="icon" viewBox="0 0 1024 1024" version="1.1" xmlns="http://www.w3.org/2000/svg" p-id="6183" xmlns:xlink="http://www.w3.org/1999/xlink" width="200" height="200"><defs><style type="text/css"></style></defs><path d="M810.666667 597.333333h85.333333a42.666667 42.666667 0 0 0 0-85.333333h-85.333333v-42.666667a219.733333 219.733333 0 0 0-8.96-58.026666A213.333333 213.333333 0 0 0 938.666667 213.333333a42.666667 42.666667 0 0 0-85.333334 0 128 128 0 0 1-91.306666 122.453334A213.333333 213.333333 0 0 0 682.666667 273.066667a110.08 110.08 0 0 0 0-17.066667 170.666667 170.666667 0 0 0-341.333334 0 110.08 110.08 0 0 0 0 17.066667 213.333333 213.333333 0 0 0-81.066666 62.72A128 128 0 0 1 170.666667 213.333333a42.666667 42.666667 0 0 0-85.333334 0 213.333333 213.333333 0 0 0 136.96 197.973334A219.733333 219.733333 0 0 0 213.333333 469.333333v42.666667H128a42.666667 42.666667 0 0 0 0 85.333333h85.333333v42.666667a298.666667 298.666667 0 0 0 5.973334 58.88A213.333333 213.333333 0 0 0 85.333333 896a42.666667 42.666667 0 0 0 85.333334 0 128 128 0 0 1 77.226666-116.906667 298.666667 298.666667 0 0 0 528.213334 0A128 128 0 0 1 853.333333 896a42.666667 42.666667 0 0 0 85.333334 0 213.333333 213.333333 0 0 0-133.973334-197.12A298.666667 298.666667 0 0 0 810.666667 640z m-341.333334 251.733334A213.333333 213.333333 0 0 1 298.666667 640v-170.666667a128 128 0 0 1 128-128h42.666666zM426.666667 256a85.333333 85.333333 0 0 1 170.666666 0z m298.666666 384a213.333333 213.333333 0 0 1-170.666666 209.066667V341.333333h42.666666a128 128 0 0 1 128 128z" p-id="6184"></path></svg>