<?xml version="1.0" standalone="no"?><!DOCTYPE svg PUBLIC "-//W3C//DTD SVG 1.1//EN" "http://www.w3.org/Graphics/SVG/1.1/DTD/svg11.dtd"><svg t="1567589003242" class="icon" viewBox="0 0 1024 1024" version="1.1" xmlns="http://www.w3.org/2000/svg" p-id="5397" xmlns:xlink="http://www.w3.org/1999/xlink" width="200" height="200"><defs><style type="text/css"></style></defs><path d="M896.174 63.868l-832.162 0.078v831.693h384.075V831.72l-320.062 0.044-0.035-703.774h704.171v320.218h64.012V63.868z" p-id="5398"></path><path d="M192.08 319.871h384.075v-63.919H192.08v63.919z m0 127.768l320.062 0.069V383.79H192.08v63.849z m0 128.317h192.037v-63.891l-192.037-0.028v63.919z m0 0M705.643 895.619C595.51 897.227 513.32 802.618 513.32 703.408c0-113.439 91.234-192.041 192.323-192.041 118.069 0 192.887 99.598 192.323 192.041-0.633 103.519-81.629 189.647-192.323 192.211z m0-320.238c-72.702 0-128.215 55.33-128.215 128.027 0 72.699 55.514 128.027 128.215 128.027s128.215-55.328 128.215-128.027c0-72.697-55.514-128.027-128.215-128.027z" p-id="5399"></path><path d="M922.723 959.71L801.836 838.828l36.688-36.685 121.7 121.694" p-id="5400"></path></svg>